<mxfile host="app.diagrams.net" modified="2024-04-09T08:01:54.730Z" agent="Mozilla/5.0 (Windows NT 10.0; Win64; x64) AppleWebKit/537.36 (KHTML, like Gecko) Chrome/123.0.0.0 Safari/537.36 Edg/123.0.0.0" etag="bvkaNSj-IBKcsQcBpM0z" version="24.2.2" type="device">
  <diagram id="C5RBs43oDa-KdzZeNtuy" name="Page-1">
    <mxGraphModel dx="1895" dy="1049" grid="1" gridSize="10" guides="1" tooltips="1" connect="1" arrows="1" fold="1" page="1" pageScale="1" pageWidth="827" pageHeight="1169" math="0" shadow="0">
      <root>
        <mxCell id="WIyWlLk6GJQsqaUBKTNV-0" />
        <mxCell id="WIyWlLk6GJQsqaUBKTNV-1" parent="WIyWlLk6GJQsqaUBKTNV-0" />
        <mxCell id="kOnfNO-TKj69ax_tA5gU-0" value="start" style="strokeWidth=2;html=1;shape=mxgraph.flowchart.start_1;whiteSpace=wrap;" vertex="1" parent="WIyWlLk6GJQsqaUBKTNV-1">
          <mxGeometry x="105.57" y="30" width="70" height="40" as="geometry" />
        </mxCell>
        <mxCell id="kOnfNO-TKj69ax_tA5gU-1" value="valid&lt;div&gt;PC&lt;/div&gt;" style="rhombus;whiteSpace=wrap;html=1;shadow=0;fontFamily=Helvetica;fontSize=12;align=center;strokeWidth=1;spacing=6;spacingTop=-4;" vertex="1" parent="WIyWlLk6GJQsqaUBKTNV-1">
          <mxGeometry x="90.57" y="170" width="100" height="50" as="geometry" />
        </mxCell>
        <mxCell id="kOnfNO-TKj69ax_tA5gU-6" value="yes" style="rounded=0;html=1;jettySize=auto;orthogonalLoop=1;fontSize=11;endArrow=block;endFill=0;endSize=8;strokeWidth=1;shadow=0;labelBackgroundColor=none;edgeStyle=orthogonalEdgeStyle;exitX=0.5;exitY=1;exitDx=0;exitDy=0;entryX=0.457;entryY=-0.021;entryDx=0;entryDy=0;entryPerimeter=0;" edge="1" parent="WIyWlLk6GJQsqaUBKTNV-1" source="kOnfNO-TKj69ax_tA5gU-1" target="kOnfNO-TKj69ax_tA5gU-15">
          <mxGeometry x="-0.3295" y="10" relative="1" as="geometry">
            <mxPoint as="offset" />
            <mxPoint x="20" y="280" as="sourcePoint" />
            <mxPoint x="20" y="340" as="targetPoint" />
          </mxGeometry>
        </mxCell>
        <mxCell id="kOnfNO-TKj69ax_tA5gU-14" value="abort" style="strokeWidth=2;html=1;shape=mxgraph.flowchart.terminator;whiteSpace=wrap;" vertex="1" parent="WIyWlLk6GJQsqaUBKTNV-1">
          <mxGeometry x="2260" y="720" width="100" height="60" as="geometry" />
        </mxCell>
        <mxCell id="kOnfNO-TKj69ax_tA5gU-15" value="memory" style="rounded=1;whiteSpace=wrap;html=1;fontSize=12;glass=0;strokeWidth=1;shadow=0;" vertex="1" parent="WIyWlLk6GJQsqaUBKTNV-1">
          <mxGeometry x="97.57" y="250" width="93" height="40" as="geometry" />
        </mxCell>
        <mxCell id="kOnfNO-TKj69ax_tA5gU-20" value="" style="endArrow=none;html=1;rounded=0;entryX=0.448;entryY=0.971;entryDx=0;entryDy=0;entryPerimeter=0;" edge="1" parent="WIyWlLk6GJQsqaUBKTNV-1" target="kOnfNO-TKj69ax_tA5gU-15">
          <mxGeometry width="50" height="50" relative="1" as="geometry">
            <mxPoint x="139" y="1250" as="sourcePoint" />
            <mxPoint x="60.56999999999999" y="290" as="targetPoint" />
          </mxGeometry>
        </mxCell>
        <mxCell id="kOnfNO-TKj69ax_tA5gU-21" value="instruction" style="edgeLabel;html=1;align=center;verticalAlign=middle;resizable=0;points=[];" vertex="1" connectable="0" parent="kOnfNO-TKj69ax_tA5gU-20">
          <mxGeometry x="0.1929" y="1" relative="1" as="geometry">
            <mxPoint x="2" y="-377" as="offset" />
          </mxGeometry>
        </mxCell>
        <mxCell id="kOnfNO-TKj69ax_tA5gU-22" value="fetch instruction" style="rounded=1;whiteSpace=wrap;html=1;fontSize=12;glass=0;strokeWidth=1;shadow=0;" vertex="1" parent="WIyWlLk6GJQsqaUBKTNV-1">
          <mxGeometry x="94.07" y="100" width="93" height="40" as="geometry" />
        </mxCell>
        <mxCell id="kOnfNO-TKj69ax_tA5gU-23" value="PC" style="rounded=0;html=1;jettySize=auto;orthogonalLoop=1;fontSize=11;endArrow=block;endFill=0;endSize=8;strokeWidth=1;shadow=0;labelBackgroundColor=none;edgeStyle=orthogonalEdgeStyle;exitX=0.5;exitY=1;exitDx=0;exitDy=0;" edge="1" parent="WIyWlLk6GJQsqaUBKTNV-1" source="kOnfNO-TKj69ax_tA5gU-22" target="kOnfNO-TKj69ax_tA5gU-1">
          <mxGeometry x="0.1998" y="9" relative="1" as="geometry">
            <mxPoint as="offset" />
            <mxPoint x="140.57" y="120" as="sourcePoint" />
            <mxPoint x="150.57" y="319" as="targetPoint" />
          </mxGeometry>
        </mxCell>
        <mxCell id="kOnfNO-TKj69ax_tA5gU-24" value="" style="rounded=0;html=1;jettySize=auto;orthogonalLoop=1;fontSize=11;endArrow=block;endFill=0;endSize=8;strokeWidth=1;shadow=0;labelBackgroundColor=none;edgeStyle=orthogonalEdgeStyle;exitX=0.5;exitY=1;exitDx=0;exitDy=0;exitPerimeter=0;" edge="1" parent="WIyWlLk6GJQsqaUBKTNV-1" source="kOnfNO-TKj69ax_tA5gU-0" target="kOnfNO-TKj69ax_tA5gU-22">
          <mxGeometry x="-0.3295" y="10" relative="1" as="geometry">
            <mxPoint as="offset" />
            <mxPoint x="150.57" y="140" as="sourcePoint" />
            <mxPoint x="150.57" y="180" as="targetPoint" />
          </mxGeometry>
        </mxCell>
        <mxCell id="kOnfNO-TKj69ax_tA5gU-25" value="case dsg" style="rhombus;whiteSpace=wrap;html=1;shadow=0;fontFamily=Helvetica;fontSize=12;align=center;strokeWidth=1;spacing=6;spacingTop=-4;" vertex="1" parent="WIyWlLk6GJQsqaUBKTNV-1">
          <mxGeometry x="200" y="310" width="100" height="30" as="geometry" />
        </mxCell>
        <mxCell id="kOnfNO-TKj69ax_tA5gU-35" value="" style="edgeStyle=orthogonalEdgeStyle;rounded=0;html=1;jettySize=auto;orthogonalLoop=1;fontSize=11;endArrow=block;endFill=0;endSize=8;strokeWidth=1;shadow=0;labelBackgroundColor=none;entryX=0;entryY=0.5;entryDx=0;entryDy=0;" edge="1" parent="WIyWlLk6GJQsqaUBKTNV-1" target="kOnfNO-TKj69ax_tA5gU-25">
          <mxGeometry y="10" relative="1" as="geometry">
            <mxPoint as="offset" />
            <mxPoint x="140" y="325" as="sourcePoint" />
            <mxPoint x="380" y="310" as="targetPoint" />
            <Array as="points">
              <mxPoint x="140" y="326" />
              <mxPoint x="160" y="326" />
            </Array>
          </mxGeometry>
        </mxCell>
        <mxCell id="kOnfNO-TKj69ax_tA5gU-36" value="case drf" style="rhombus;whiteSpace=wrap;html=1;shadow=0;fontFamily=Helvetica;fontSize=12;align=center;strokeWidth=1;spacing=6;spacingTop=-4;" vertex="1" parent="WIyWlLk6GJQsqaUBKTNV-1">
          <mxGeometry x="200" y="365" width="100" height="30" as="geometry" />
        </mxCell>
        <mxCell id="kOnfNO-TKj69ax_tA5gU-37" value="" style="edgeStyle=orthogonalEdgeStyle;rounded=0;html=1;jettySize=auto;orthogonalLoop=1;fontSize=11;endArrow=block;endFill=0;endSize=8;strokeWidth=1;shadow=0;labelBackgroundColor=none;entryX=0;entryY=0.5;entryDx=0;entryDy=0;" edge="1" target="kOnfNO-TKj69ax_tA5gU-36" parent="WIyWlLk6GJQsqaUBKTNV-1">
          <mxGeometry y="10" relative="1" as="geometry">
            <mxPoint as="offset" />
            <mxPoint x="140" y="380" as="sourcePoint" />
            <mxPoint x="380" y="365" as="targetPoint" />
          </mxGeometry>
        </mxCell>
        <mxCell id="kOnfNO-TKj69ax_tA5gU-62" value="case read" style="rhombus;whiteSpace=wrap;html=1;shadow=0;fontFamily=Helvetica;fontSize=12;align=center;strokeWidth=1;spacing=6;spacingTop=-4;" vertex="1" parent="WIyWlLk6GJQsqaUBKTNV-1">
          <mxGeometry x="200" y="480" width="100" height="30" as="geometry" />
        </mxCell>
        <mxCell id="kOnfNO-TKj69ax_tA5gU-64" value="case arith" style="rhombus;whiteSpace=wrap;html=1;shadow=0;fontFamily=Helvetica;fontSize=12;align=center;strokeWidth=1;spacing=6;spacingTop=-4;" vertex="1" parent="WIyWlLk6GJQsqaUBKTNV-1">
          <mxGeometry x="198.5" y="1165" width="100" height="30" as="geometry" />
        </mxCell>
        <mxCell id="kOnfNO-TKj69ax_tA5gU-65" value="" style="edgeStyle=orthogonalEdgeStyle;rounded=0;html=1;jettySize=auto;orthogonalLoop=1;fontSize=11;endArrow=block;endFill=0;endSize=8;strokeWidth=1;shadow=0;labelBackgroundColor=none;entryX=0;entryY=0.5;entryDx=0;entryDy=0;" edge="1" target="kOnfNO-TKj69ax_tA5gU-64" parent="WIyWlLk6GJQsqaUBKTNV-1">
          <mxGeometry y="10" relative="1" as="geometry">
            <mxPoint as="offset" />
            <mxPoint x="138.5" y="1180" as="sourcePoint" />
            <mxPoint x="378.5" y="1165" as="targetPoint" />
          </mxGeometry>
        </mxCell>
        <mxCell id="kOnfNO-TKj69ax_tA5gU-66" value="case ret" style="rhombus;whiteSpace=wrap;html=1;shadow=0;fontFamily=Helvetica;fontSize=12;align=center;strokeWidth=1;spacing=6;spacingTop=-4;" vertex="1" parent="WIyWlLk6GJQsqaUBKTNV-1">
          <mxGeometry x="200" y="1090" width="100" height="30" as="geometry" />
        </mxCell>
        <mxCell id="kOnfNO-TKj69ax_tA5gU-67" value="" style="edgeStyle=orthogonalEdgeStyle;rounded=0;html=1;jettySize=auto;orthogonalLoop=1;fontSize=11;endArrow=block;endFill=0;endSize=8;strokeWidth=1;shadow=0;labelBackgroundColor=none;entryX=0;entryY=0.5;entryDx=0;entryDy=0;" edge="1" target="kOnfNO-TKj69ax_tA5gU-66" parent="WIyWlLk6GJQsqaUBKTNV-1">
          <mxGeometry y="10" relative="1" as="geometry">
            <mxPoint as="offset" />
            <mxPoint x="140" y="1105" as="sourcePoint" />
            <mxPoint x="380" y="1090" as="targetPoint" />
          </mxGeometry>
        </mxCell>
        <mxCell id="kOnfNO-TKj69ax_tA5gU-68" value="case new" style="rhombus;whiteSpace=wrap;html=1;shadow=0;fontFamily=Helvetica;fontSize=12;align=center;strokeWidth=1;spacing=6;spacingTop=-4;" vertex="1" parent="WIyWlLk6GJQsqaUBKTNV-1">
          <mxGeometry x="200" y="740" width="100" height="30" as="geometry" />
        </mxCell>
        <mxCell id="kOnfNO-TKj69ax_tA5gU-69" value="" style="edgeStyle=orthogonalEdgeStyle;rounded=0;html=1;jettySize=auto;orthogonalLoop=1;fontSize=11;endArrow=block;endFill=0;endSize=8;strokeWidth=1;shadow=0;labelBackgroundColor=none;entryX=0;entryY=0.5;entryDx=0;entryDy=0;" edge="1" target="kOnfNO-TKj69ax_tA5gU-68" parent="WIyWlLk6GJQsqaUBKTNV-1">
          <mxGeometry y="10" relative="1" as="geometry">
            <mxPoint as="offset" />
            <mxPoint x="140" y="755" as="sourcePoint" />
            <mxPoint x="380" y="740" as="targetPoint" />
          </mxGeometry>
        </mxCell>
        <mxCell id="kOnfNO-TKj69ax_tA5gU-70" value="case del" style="rhombus;whiteSpace=wrap;html=1;shadow=0;fontFamily=Helvetica;fontSize=12;align=center;strokeWidth=1;spacing=6;spacingTop=-4;" vertex="1" parent="WIyWlLk6GJQsqaUBKTNV-1">
          <mxGeometry x="200" y="850" width="100" height="30" as="geometry" />
        </mxCell>
        <mxCell id="kOnfNO-TKj69ax_tA5gU-71" value="" style="edgeStyle=orthogonalEdgeStyle;rounded=0;html=1;jettySize=auto;orthogonalLoop=1;fontSize=11;endArrow=block;endFill=0;endSize=8;strokeWidth=1;shadow=0;labelBackgroundColor=none;entryX=0;entryY=0.5;entryDx=0;entryDy=0;" edge="1" target="kOnfNO-TKj69ax_tA5gU-70" parent="WIyWlLk6GJQsqaUBKTNV-1">
          <mxGeometry y="10" relative="1" as="geometry">
            <mxPoint as="offset" />
            <mxPoint x="140" y="865" as="sourcePoint" />
            <mxPoint x="384" y="850" as="targetPoint" />
          </mxGeometry>
        </mxCell>
        <mxCell id="kOnfNO-TKj69ax_tA5gU-72" value="case call" style="rhombus;whiteSpace=wrap;html=1;shadow=0;fontFamily=Helvetica;fontSize=12;align=center;strokeWidth=1;spacing=6;spacingTop=-4;" vertex="1" parent="WIyWlLk6GJQsqaUBKTNV-1">
          <mxGeometry x="200" y="1000" width="100" height="30" as="geometry" />
        </mxCell>
        <mxCell id="kOnfNO-TKj69ax_tA5gU-73" value="" style="edgeStyle=orthogonalEdgeStyle;rounded=0;html=1;jettySize=auto;orthogonalLoop=1;fontSize=11;endArrow=block;endFill=0;endSize=8;strokeWidth=1;shadow=0;labelBackgroundColor=none;entryX=0;entryY=0.5;entryDx=0;entryDy=0;" edge="1" target="kOnfNO-TKj69ax_tA5gU-72" parent="WIyWlLk6GJQsqaUBKTNV-1">
          <mxGeometry y="10" relative="1" as="geometry">
            <mxPoint as="offset" />
            <mxPoint x="140" y="1015" as="sourcePoint" />
            <mxPoint x="380" y="995" as="targetPoint" />
          </mxGeometry>
        </mxCell>
        <mxCell id="kOnfNO-TKj69ax_tA5gU-74" value="case jmp" style="rhombus;whiteSpace=wrap;html=1;shadow=0;fontFamily=Helvetica;fontSize=12;align=center;strokeWidth=1;spacing=6;spacingTop=-4;" vertex="1" parent="WIyWlLk6GJQsqaUBKTNV-1">
          <mxGeometry x="200" y="920" width="100" height="30" as="geometry" />
        </mxCell>
        <mxCell id="kOnfNO-TKj69ax_tA5gU-75" value="" style="edgeStyle=orthogonalEdgeStyle;rounded=0;html=1;jettySize=auto;orthogonalLoop=1;fontSize=11;endArrow=block;endFill=0;endSize=8;strokeWidth=1;shadow=0;labelBackgroundColor=none;entryX=0;entryY=0.5;entryDx=0;entryDy=0;" edge="1" target="kOnfNO-TKj69ax_tA5gU-74" parent="WIyWlLk6GJQsqaUBKTNV-1">
          <mxGeometry y="10" relative="1" as="geometry">
            <mxPoint as="offset" />
            <mxPoint x="140" y="935" as="sourcePoint" />
            <mxPoint x="380" y="920" as="targetPoint" />
          </mxGeometry>
        </mxCell>
        <mxCell id="kOnfNO-TKj69ax_tA5gU-76" value="case halt" style="rhombus;whiteSpace=wrap;html=1;shadow=0;fontFamily=Helvetica;fontSize=12;align=center;strokeWidth=1;spacing=6;spacingTop=-4;" vertex="1" parent="WIyWlLk6GJQsqaUBKTNV-1">
          <mxGeometry x="200" y="1230" width="100" height="30" as="geometry" />
        </mxCell>
        <mxCell id="kOnfNO-TKj69ax_tA5gU-77" value="" style="edgeStyle=orthogonalEdgeStyle;rounded=0;html=1;jettySize=auto;orthogonalLoop=1;fontSize=11;endArrow=block;endFill=0;endSize=8;strokeWidth=1;shadow=0;labelBackgroundColor=none;entryX=0;entryY=0.5;entryDx=0;entryDy=0;" edge="1" target="kOnfNO-TKj69ax_tA5gU-76" parent="WIyWlLk6GJQsqaUBKTNV-1">
          <mxGeometry y="10" relative="1" as="geometry">
            <mxPoint as="offset" />
            <mxPoint x="140" y="1245" as="sourcePoint" />
            <mxPoint x="380" y="1230" as="targetPoint" />
          </mxGeometry>
        </mxCell>
        <mxCell id="kOnfNO-TKj69ax_tA5gU-78" value="set object reference register" style="rounded=1;whiteSpace=wrap;html=1;fontSize=12;glass=0;strokeWidth=1;shadow=0;" vertex="1" parent="WIyWlLk6GJQsqaUBKTNV-1">
          <mxGeometry x="330" y="312.5" width="156.5" height="25" as="geometry" />
        </mxCell>
        <mxCell id="kOnfNO-TKj69ax_tA5gU-79" value="" style="edgeStyle=orthogonalEdgeStyle;rounded=0;html=1;jettySize=auto;orthogonalLoop=1;fontSize=11;endArrow=block;endFill=0;endSize=8;strokeWidth=1;shadow=0;labelBackgroundColor=none;entryX=0;entryY=0.5;entryDx=0;entryDy=0;exitX=1;exitY=0.5;exitDx=0;exitDy=0;" edge="1" parent="WIyWlLk6GJQsqaUBKTNV-1" source="kOnfNO-TKj69ax_tA5gU-25" target="kOnfNO-TKj69ax_tA5gU-78">
          <mxGeometry y="10" relative="1" as="geometry">
            <mxPoint as="offset" />
            <mxPoint x="150" y="375" as="sourcePoint" />
            <mxPoint x="210" y="375" as="targetPoint" />
          </mxGeometry>
        </mxCell>
        <mxCell id="kOnfNO-TKj69ax_tA5gU-81" value="teminate" style="strokeWidth=2;html=1;shape=mxgraph.flowchart.terminator;whiteSpace=wrap;" vertex="1" parent="WIyWlLk6GJQsqaUBKTNV-1">
          <mxGeometry x="2381.79" y="1230" width="49.43" height="30" as="geometry" />
        </mxCell>
        <mxCell id="kOnfNO-TKj69ax_tA5gU-82" value="" style="edgeStyle=orthogonalEdgeStyle;rounded=0;html=1;jettySize=auto;orthogonalLoop=1;fontSize=11;endArrow=block;endFill=0;endSize=8;strokeWidth=1;shadow=0;labelBackgroundColor=none;entryX=0;entryY=0.5;entryDx=0;entryDy=0;exitX=1;exitY=0.5;exitDx=0;exitDy=0;entryPerimeter=0;" edge="1" parent="WIyWlLk6GJQsqaUBKTNV-1" source="kOnfNO-TKj69ax_tA5gU-76" target="kOnfNO-TKj69ax_tA5gU-81">
          <mxGeometry y="10" relative="1" as="geometry">
            <mxPoint as="offset" />
            <mxPoint x="150" y="1255" as="sourcePoint" />
            <mxPoint x="210" y="1255" as="targetPoint" />
          </mxGeometry>
        </mxCell>
        <mxCell id="kOnfNO-TKj69ax_tA5gU-83" value="report&lt;div&gt;UB/error&lt;/div&gt;" style="rounded=1;whiteSpace=wrap;html=1;fontSize=12;glass=0;strokeWidth=1;shadow=0;" vertex="1" parent="WIyWlLk6GJQsqaUBKTNV-1">
          <mxGeometry x="2130" y="730" width="93" height="40" as="geometry" />
        </mxCell>
        <mxCell id="kOnfNO-TKj69ax_tA5gU-84" value="" style="edgeStyle=orthogonalEdgeStyle;rounded=0;html=1;jettySize=auto;orthogonalLoop=1;fontSize=11;endArrow=block;endFill=0;endSize=8;strokeWidth=1;shadow=0;labelBackgroundColor=none;exitX=1;exitY=0.5;exitDx=0;exitDy=0;" edge="1" parent="WIyWlLk6GJQsqaUBKTNV-1" source="kOnfNO-TKj69ax_tA5gU-83" target="kOnfNO-TKj69ax_tA5gU-14">
          <mxGeometry y="10" relative="1" as="geometry">
            <mxPoint as="offset" />
            <mxPoint x="460" y="335" as="sourcePoint" />
            <mxPoint x="490" y="335" as="targetPoint" />
          </mxGeometry>
        </mxCell>
        <mxCell id="kOnfNO-TKj69ax_tA5gU-85" value="pop operand stack" style="rounded=1;whiteSpace=wrap;html=1;fontSize=12;glass=0;strokeWidth=1;shadow=0;" vertex="1" parent="WIyWlLk6GJQsqaUBKTNV-1">
          <mxGeometry x="330" y="365" width="120" height="30" as="geometry" />
        </mxCell>
        <mxCell id="kOnfNO-TKj69ax_tA5gU-86" value="is pointer" style="rhombus;whiteSpace=wrap;html=1;shadow=0;fontFamily=Helvetica;fontSize=12;align=center;strokeWidth=1;spacing=6;spacingTop=-4;" vertex="1" parent="WIyWlLk6GJQsqaUBKTNV-1">
          <mxGeometry x="650" y="365" width="100" height="30" as="geometry" />
        </mxCell>
        <mxCell id="kOnfNO-TKj69ax_tA5gU-87" value="is null" style="rhombus;whiteSpace=wrap;html=1;shadow=0;fontFamily=Helvetica;fontSize=12;align=center;strokeWidth=1;spacing=6;spacingTop=-4;" vertex="1" parent="WIyWlLk6GJQsqaUBKTNV-1">
          <mxGeometry x="801" y="365" width="100" height="30" as="geometry" />
        </mxCell>
        <mxCell id="kOnfNO-TKj69ax_tA5gU-89" value="points one&lt;div&gt;past the last element&lt;/div&gt;" style="rhombus;whiteSpace=wrap;html=1;shadow=0;fontFamily=Helvetica;fontSize=12;align=center;strokeWidth=1;spacing=6;spacingTop=-4;" vertex="1" parent="WIyWlLk6GJQsqaUBKTNV-1">
          <mxGeometry x="950" y="356.88" width="210" height="46.25" as="geometry" />
        </mxCell>
        <mxCell id="kOnfNO-TKj69ax_tA5gU-90" value="get lvalue type &amp;amp; entity by orr" style="rounded=1;whiteSpace=wrap;html=1;fontSize=12;glass=0;strokeWidth=1;shadow=0;" vertex="1" parent="WIyWlLk6GJQsqaUBKTNV-1">
          <mxGeometry x="330" y="480" width="120" height="30" as="geometry" />
        </mxCell>
        <mxCell id="kOnfNO-TKj69ax_tA5gU-91" value="set orr" style="rounded=1;whiteSpace=wrap;html=1;fontSize=12;glass=0;strokeWidth=1;shadow=0;" vertex="1" parent="WIyWlLk6GJQsqaUBKTNV-1">
          <mxGeometry x="1203" y="365.01" width="57" height="30" as="geometry" />
        </mxCell>
        <mxCell id="kOnfNO-TKj69ax_tA5gU-92" value="compatible" style="rhombus;whiteSpace=wrap;html=1;shadow=0;fontFamily=Helvetica;fontSize=12;align=center;strokeWidth=1;spacing=6;spacingTop=-4;" vertex="1" parent="WIyWlLk6GJQsqaUBKTNV-1">
          <mxGeometry x="486.5" y="480" width="100" height="30" as="geometry" />
        </mxCell>
        <mxCell id="kOnfNO-TKj69ax_tA5gU-93" value="entity is array or function" style="rhombus;whiteSpace=wrap;html=1;shadow=0;fontFamily=Helvetica;fontSize=12;align=center;strokeWidth=1;spacing=6;spacingTop=-4;" vertex="1" parent="WIyWlLk6GJQsqaUBKTNV-1">
          <mxGeometry x="623.5" y="470" width="126.5" height="50" as="geometry" />
        </mxCell>
        <mxCell id="kOnfNO-TKj69ax_tA5gU-96" value="lvalue conversion" style="rounded=1;whiteSpace=wrap;html=1;fontSize=12;glass=0;strokeWidth=1;shadow=0;" vertex="1" parent="WIyWlLk6GJQsqaUBKTNV-1">
          <mxGeometry x="780" y="440" width="70" height="30" as="geometry" />
        </mxCell>
        <mxCell id="kOnfNO-TKj69ax_tA5gU-97" value="correctly&amp;nbsp;&lt;span style=&quot;background-color: initial;&quot;&gt;designated&lt;/span&gt;" style="rhombus;whiteSpace=wrap;html=1;shadow=0;fontFamily=Helvetica;fontSize=12;align=center;strokeWidth=1;spacing=6;spacingTop=-4;" vertex="1" parent="WIyWlLk6GJQsqaUBKTNV-1">
          <mxGeometry x="765" y="510" width="145" height="30" as="geometry" />
        </mxCell>
        <mxCell id="kOnfNO-TKj69ax_tA5gU-98" value="well&amp;nbsp;&lt;span style=&quot;background-color: initial;&quot;&gt;representation&lt;/span&gt;" style="rhombus;whiteSpace=wrap;html=1;shadow=0;fontFamily=Helvetica;fontSize=12;align=center;strokeWidth=1;spacing=6;spacingTop=-4;" vertex="1" parent="WIyWlLk6GJQsqaUBKTNV-1">
          <mxGeometry x="950" y="510" width="136" height="30" as="geometry" />
        </mxCell>
        <mxCell id="kOnfNO-TKj69ax_tA5gU-100" value="read value &amp;amp;&lt;div&gt;push stack&lt;/div&gt;" style="rounded=1;whiteSpace=wrap;html=1;fontSize=12;glass=0;strokeWidth=1;shadow=0;" vertex="1" parent="WIyWlLk6GJQsqaUBKTNV-1">
          <mxGeometry x="1570" y="510" width="70" height="30" as="geometry" />
        </mxCell>
        <mxCell id="kOnfNO-TKj69ax_tA5gU-101" value="entity is volatile&lt;div&gt;qualified&lt;/div&gt;" style="rhombus;whiteSpace=wrap;html=1;shadow=0;fontFamily=Helvetica;fontSize=12;align=center;strokeWidth=1;spacing=6;spacingTop=-4;" vertex="1" parent="WIyWlLk6GJQsqaUBKTNV-1">
          <mxGeometry x="1125" y="500" width="170" height="50" as="geometry" />
        </mxCell>
        <mxCell id="kOnfNO-TKj69ax_tA5gU-102" value="lvalue type is volatile&lt;div&gt;qualified&lt;/div&gt;" style="rhombus;whiteSpace=wrap;html=1;shadow=0;fontFamily=Helvetica;fontSize=12;align=center;strokeWidth=1;spacing=6;spacingTop=-4;" vertex="1" parent="WIyWlLk6GJQsqaUBKTNV-1">
          <mxGeometry x="1290" y="460" width="140" height="50" as="geometry" />
        </mxCell>
        <mxCell id="kOnfNO-TKj69ax_tA5gU-115" value="sequenced&lt;div&gt;access&lt;/div&gt;" style="rhombus;whiteSpace=wrap;html=1;shadow=0;fontFamily=Helvetica;fontSize=12;align=center;strokeWidth=1;spacing=6;spacingTop=-4;" vertex="1" parent="WIyWlLk6GJQsqaUBKTNV-1">
          <mxGeometry x="1410" y="505" width="120" height="40" as="geometry" />
        </mxCell>
        <mxCell id="kOnfNO-TKj69ax_tA5gU-123" value="new object" style="rounded=1;whiteSpace=wrap;html=1;fontSize=12;glass=0;strokeWidth=1;shadow=0;" vertex="1" parent="WIyWlLk6GJQsqaUBKTNV-1">
          <mxGeometry x="330" y="740" width="120" height="30" as="geometry" />
        </mxCell>
        <mxCell id="kOnfNO-TKj69ax_tA5gU-124" value="push pointer to stack" style="rounded=1;whiteSpace=wrap;html=1;fontSize=12;glass=0;strokeWidth=1;shadow=0;" vertex="1" parent="WIyWlLk6GJQsqaUBKTNV-1">
          <mxGeometry x="480" y="740" width="120" height="30" as="geometry" />
        </mxCell>
        <mxCell id="kOnfNO-TKj69ax_tA5gU-126" value="pop operand stack" style="rounded=1;whiteSpace=wrap;html=1;fontSize=12;glass=0;strokeWidth=1;shadow=0;" vertex="1" parent="WIyWlLk6GJQsqaUBKTNV-1">
          <mxGeometry x="330" y="850" width="120" height="30" as="geometry" />
        </mxCell>
        <mxCell id="kOnfNO-TKj69ax_tA5gU-127" value="is pointer" style="rhombus;whiteSpace=wrap;html=1;shadow=0;fontFamily=Helvetica;fontSize=12;align=center;strokeWidth=1;spacing=6;spacingTop=-4;" vertex="1" parent="WIyWlLk6GJQsqaUBKTNV-1">
          <mxGeometry x="646.75" y="850" width="100" height="30" as="geometry" />
        </mxCell>
        <mxCell id="kOnfNO-TKj69ax_tA5gU-128" value="is null" style="rhombus;whiteSpace=wrap;html=1;shadow=0;fontFamily=Helvetica;fontSize=12;align=center;strokeWidth=1;spacing=6;spacingTop=-4;" vertex="1" parent="WIyWlLk6GJQsqaUBKTNV-1">
          <mxGeometry x="793.5" y="850" width="100" height="30" as="geometry" />
        </mxCell>
        <mxCell id="kOnfNO-TKj69ax_tA5gU-131" value="offset == 0" style="rhombus;whiteSpace=wrap;html=1;shadow=0;fontFamily=Helvetica;fontSize=12;align=center;strokeWidth=1;spacing=6;spacingTop=-4;" vertex="1" parent="WIyWlLk6GJQsqaUBKTNV-1">
          <mxGeometry x="930" y="850" width="100" height="30" as="geometry" />
        </mxCell>
        <mxCell id="kOnfNO-TKj69ax_tA5gU-132" value="referenced entity&lt;div&gt;is function&lt;/div&gt;" style="rhombus;whiteSpace=wrap;html=1;shadow=0;fontFamily=Helvetica;fontSize=12;align=center;strokeWidth=1;spacing=6;spacingTop=-4;" vertex="1" parent="WIyWlLk6GJQsqaUBKTNV-1">
          <mxGeometry x="1070" y="840" width="140" height="50" as="geometry" />
        </mxCell>
        <mxCell id="kOnfNO-TKj69ax_tA5gU-133" value="destroyed" style="rhombus;whiteSpace=wrap;html=1;shadow=0;fontFamily=Helvetica;fontSize=12;align=center;strokeWidth=1;spacing=6;spacingTop=-4;" vertex="1" parent="WIyWlLk6GJQsqaUBKTNV-1">
          <mxGeometry x="1260" y="850" width="100" height="30" as="geometry" />
        </mxCell>
        <mxCell id="kOnfNO-TKj69ax_tA5gU-134" value="is top object" style="rhombus;whiteSpace=wrap;html=1;shadow=0;fontFamily=Helvetica;fontSize=12;align=center;strokeWidth=1;spacing=6;spacingTop=-4;" vertex="1" parent="WIyWlLk6GJQsqaUBKTNV-1">
          <mxGeometry x="1400" y="850" width="100" height="30" as="geometry" />
        </mxCell>
        <mxCell id="kOnfNO-TKj69ax_tA5gU-135" value="is heap object" style="rhombus;whiteSpace=wrap;html=1;shadow=0;fontFamily=Helvetica;fontSize=12;align=center;strokeWidth=1;spacing=6;spacingTop=-4;" vertex="1" parent="WIyWlLk6GJQsqaUBKTNV-1">
          <mxGeometry x="1540" y="850" width="100" height="30" as="geometry" />
        </mxCell>
        <mxCell id="kOnfNO-TKj69ax_tA5gU-137" value="sequenced&lt;div&gt;access&lt;/div&gt;" style="rhombus;whiteSpace=wrap;html=1;shadow=0;fontFamily=Helvetica;fontSize=12;align=center;strokeWidth=1;spacing=6;spacingTop=-4;" vertex="1" parent="WIyWlLk6GJQsqaUBKTNV-1">
          <mxGeometry x="1680" y="845" width="140" height="40" as="geometry" />
        </mxCell>
        <mxCell id="kOnfNO-TKj69ax_tA5gU-138" value="update object status" style="rounded=1;whiteSpace=wrap;html=1;fontSize=12;glass=0;strokeWidth=1;shadow=0;" vertex="1" parent="WIyWlLk6GJQsqaUBKTNV-1">
          <mxGeometry x="1860" y="850" width="70" height="30" as="geometry" />
        </mxCell>
        <mxCell id="kOnfNO-TKj69ax_tA5gU-139" value="cleanup&lt;div&gt;heap memory&lt;/div&gt;" style="rounded=1;whiteSpace=wrap;html=1;fontSize=12;glass=0;strokeWidth=1;shadow=0;" vertex="1" parent="WIyWlLk6GJQsqaUBKTNV-1">
          <mxGeometry x="1970" y="850" width="117" height="30" as="geometry" />
        </mxCell>
        <mxCell id="kOnfNO-TKj69ax_tA5gU-140" value="valid address" style="rhombus;whiteSpace=wrap;html=1;shadow=0;fontFamily=Helvetica;fontSize=12;align=center;strokeWidth=1;spacing=6;spacingTop=-4;" vertex="1" parent="WIyWlLk6GJQsqaUBKTNV-1">
          <mxGeometry x="330" y="920" width="100" height="30" as="geometry" />
        </mxCell>
        <mxCell id="kOnfNO-TKj69ax_tA5gU-141" value="update PC" style="rounded=1;whiteSpace=wrap;html=1;fontSize=12;glass=0;strokeWidth=1;shadow=0;" vertex="1" parent="WIyWlLk6GJQsqaUBKTNV-1">
          <mxGeometry x="480" y="920" width="120" height="30" as="geometry" />
        </mxCell>
        <mxCell id="kOnfNO-TKj69ax_tA5gU-146" value="referenced entity&lt;div&gt;is function&lt;/div&gt;" style="rhombus;whiteSpace=wrap;html=1;shadow=0;fontFamily=Helvetica;fontSize=12;align=center;strokeWidth=1;spacing=6;spacingTop=-4;" vertex="1" parent="WIyWlLk6GJQsqaUBKTNV-1">
          <mxGeometry x="934" y="987.5" width="136" height="55" as="geometry" />
        </mxCell>
        <mxCell id="kOnfNO-TKj69ax_tA5gU-147" value="indeterminate&lt;div&gt;representation&lt;/div&gt;" style="rhombus;whiteSpace=wrap;html=1;shadow=0;fontFamily=Helvetica;fontSize=12;align=center;strokeWidth=1;spacing=6;spacingTop=-4;" vertex="1" parent="WIyWlLk6GJQsqaUBKTNV-1">
          <mxGeometry x="480" y="350" width="130" height="60" as="geometry" />
        </mxCell>
        <mxCell id="kOnfNO-TKj69ax_tA5gU-150" value="compatible" style="rhombus;whiteSpace=wrap;html=1;shadow=0;fontFamily=Helvetica;fontSize=12;align=center;strokeWidth=1;spacing=6;spacingTop=-4;" vertex="1" parent="WIyWlLk6GJQsqaUBKTNV-1">
          <mxGeometry x="1110" y="1000" width="100" height="30" as="geometry" />
        </mxCell>
        <mxCell id="kOnfNO-TKj69ax_tA5gU-151" value="push call stack" style="rounded=1;whiteSpace=wrap;html=1;fontSize=12;glass=0;strokeWidth=1;shadow=0;" vertex="1" parent="WIyWlLk6GJQsqaUBKTNV-1">
          <mxGeometry x="1250" y="1000" width="120" height="30" as="geometry" />
        </mxCell>
        <mxCell id="kOnfNO-TKj69ax_tA5gU-152" value="update PC" style="rounded=1;whiteSpace=wrap;html=1;fontSize=12;glass=0;strokeWidth=1;shadow=0;" vertex="1" parent="WIyWlLk6GJQsqaUBKTNV-1">
          <mxGeometry x="1410" y="1000" width="120" height="30" as="geometry" />
        </mxCell>
        <mxCell id="kOnfNO-TKj69ax_tA5gU-153" value="update FP" style="rounded=1;whiteSpace=wrap;html=1;fontSize=12;glass=0;strokeWidth=1;shadow=0;" vertex="1" parent="WIyWlLk6GJQsqaUBKTNV-1">
          <mxGeometry x="1570" y="1000" width="120" height="30" as="geometry" />
        </mxCell>
        <mxCell id="kOnfNO-TKj69ax_tA5gU-155" value="call stack empty" style="rhombus;whiteSpace=wrap;html=1;shadow=0;fontFamily=Helvetica;fontSize=12;align=center;strokeWidth=1;spacing=6;spacingTop=-4;" vertex="1" parent="WIyWlLk6GJQsqaUBKTNV-1">
          <mxGeometry x="330" y="1090" width="120" height="30" as="geometry" />
        </mxCell>
        <mxCell id="kOnfNO-TKj69ax_tA5gU-157" value="update PC" style="rounded=1;whiteSpace=wrap;html=1;fontSize=12;glass=0;strokeWidth=1;shadow=0;" vertex="1" parent="WIyWlLk6GJQsqaUBKTNV-1">
          <mxGeometry x="485" y="1090" width="120" height="30" as="geometry" />
        </mxCell>
        <mxCell id="kOnfNO-TKj69ax_tA5gU-158" value="update FP" style="rounded=1;whiteSpace=wrap;html=1;fontSize=12;glass=0;strokeWidth=1;shadow=0;" vertex="1" parent="WIyWlLk6GJQsqaUBKTNV-1">
          <mxGeometry x="650" y="1090" width="120" height="30" as="geometry" />
        </mxCell>
        <mxCell id="kOnfNO-TKj69ax_tA5gU-160" value="pop call stack" style="rounded=1;whiteSpace=wrap;html=1;fontSize=12;glass=0;strokeWidth=1;shadow=0;" vertex="1" parent="WIyWlLk6GJQsqaUBKTNV-1">
          <mxGeometry x="810" y="1090" width="120" height="30" as="geometry" />
        </mxCell>
        <mxCell id="kOnfNO-TKj69ax_tA5gU-161" value="pop operand stack" style="rounded=1;whiteSpace=wrap;html=1;fontSize=12;glass=0;strokeWidth=1;shadow=0;" vertex="1" parent="WIyWlLk6GJQsqaUBKTNV-1">
          <mxGeometry x="328.5" y="1165" width="120" height="30" as="geometry" />
        </mxCell>
        <mxCell id="kOnfNO-TKj69ax_tA5gU-163" value="invalid&lt;div&gt;operand&lt;/div&gt;" style="rhombus;whiteSpace=wrap;html=1;shadow=0;fontFamily=Helvetica;fontSize=12;align=center;strokeWidth=1;spacing=6;spacingTop=-4;" vertex="1" parent="WIyWlLk6GJQsqaUBKTNV-1">
          <mxGeometry x="653.5" y="1162.5" width="140" height="35" as="geometry" />
        </mxCell>
        <mxCell id="kOnfNO-TKj69ax_tA5gU-164" value="invalid&lt;div&gt;result&lt;/div&gt;" style="rhombus;whiteSpace=wrap;html=1;shadow=0;fontFamily=Helvetica;fontSize=12;align=center;strokeWidth=1;spacing=6;spacingTop=-4;" vertex="1" parent="WIyWlLk6GJQsqaUBKTNV-1">
          <mxGeometry x="834" y="1162.5" width="126" height="35" as="geometry" />
        </mxCell>
        <mxCell id="kOnfNO-TKj69ax_tA5gU-165" value="push operand stack" style="rounded=1;whiteSpace=wrap;html=1;fontSize=12;glass=0;strokeWidth=1;shadow=0;" vertex="1" parent="WIyWlLk6GJQsqaUBKTNV-1">
          <mxGeometry x="1010" y="1165" width="120" height="30" as="geometry" />
        </mxCell>
        <mxCell id="kOnfNO-TKj69ax_tA5gU-169" value="" style="edgeStyle=orthogonalEdgeStyle;rounded=0;html=1;jettySize=auto;orthogonalLoop=1;fontSize=11;endArrow=block;endFill=0;endSize=8;strokeWidth=1;shadow=0;labelBackgroundColor=none;exitX=1;exitY=0.5;exitDx=0;exitDy=0;" edge="1" parent="WIyWlLk6GJQsqaUBKTNV-1" source="kOnfNO-TKj69ax_tA5gU-36" target="kOnfNO-TKj69ax_tA5gU-85">
          <mxGeometry relative="1" as="geometry">
            <mxPoint x="310" y="335" as="sourcePoint" />
            <mxPoint x="334" y="335" as="targetPoint" />
          </mxGeometry>
        </mxCell>
        <mxCell id="kOnfNO-TKj69ax_tA5gU-170" value="" style="edgeStyle=orthogonalEdgeStyle;rounded=0;html=1;jettySize=auto;orthogonalLoop=1;fontSize=11;endArrow=block;endFill=0;endSize=8;strokeWidth=1;shadow=0;labelBackgroundColor=none;exitX=1;exitY=0.5;exitDx=0;exitDy=0;" edge="1" parent="WIyWlLk6GJQsqaUBKTNV-1" source="kOnfNO-TKj69ax_tA5gU-85" target="kOnfNO-TKj69ax_tA5gU-147">
          <mxGeometry relative="1" as="geometry">
            <mxPoint x="310" y="390" as="sourcePoint" />
            <mxPoint x="340" y="390" as="targetPoint" />
          </mxGeometry>
        </mxCell>
        <mxCell id="kOnfNO-TKj69ax_tA5gU-171" value="" style="edgeStyle=orthogonalEdgeStyle;rounded=0;html=1;jettySize=auto;orthogonalLoop=1;fontSize=11;endArrow=block;endFill=0;endSize=8;strokeWidth=1;shadow=0;labelBackgroundColor=none;exitX=0.5;exitY=1;exitDx=0;exitDy=0;" edge="1" parent="WIyWlLk6GJQsqaUBKTNV-1" source="kOnfNO-TKj69ax_tA5gU-147" target="kOnfNO-TKj69ax_tA5gU-83">
          <mxGeometry relative="1" as="geometry">
            <mxPoint x="560" y="380" as="sourcePoint" />
            <mxPoint x="2030" y="560" as="targetPoint" />
            <Array as="points">
              <mxPoint x="545" y="420" />
              <mxPoint x="2180" y="420" />
            </Array>
          </mxGeometry>
        </mxCell>
        <mxCell id="kOnfNO-TKj69ax_tA5gU-172" value="yes" style="edgeLabel;html=1;align=center;verticalAlign=middle;resizable=0;points=[];" vertex="1" connectable="0" parent="kOnfNO-TKj69ax_tA5gU-171">
          <mxGeometry x="-0.9574" y="-1" relative="1" as="geometry">
            <mxPoint x="6" y="-1" as="offset" />
          </mxGeometry>
        </mxCell>
        <mxCell id="kOnfNO-TKj69ax_tA5gU-173" value="" style="edgeStyle=orthogonalEdgeStyle;rounded=0;html=1;jettySize=auto;orthogonalLoop=1;fontSize=11;endArrow=block;endFill=0;endSize=8;strokeWidth=1;shadow=0;labelBackgroundColor=none;exitX=1;exitY=0.5;exitDx=0;exitDy=0;" edge="1" parent="WIyWlLk6GJQsqaUBKTNV-1" source="kOnfNO-TKj69ax_tA5gU-147" target="kOnfNO-TKj69ax_tA5gU-86">
          <mxGeometry relative="1" as="geometry">
            <mxPoint x="460" y="390" as="sourcePoint" />
            <mxPoint x="490" y="390" as="targetPoint" />
          </mxGeometry>
        </mxCell>
        <mxCell id="kOnfNO-TKj69ax_tA5gU-174" value="no" style="edgeLabel;html=1;align=center;verticalAlign=middle;resizable=0;points=[];" vertex="1" connectable="0" parent="kOnfNO-TKj69ax_tA5gU-173">
          <mxGeometry x="-0.6648" relative="1" as="geometry">
            <mxPoint x="3" as="offset" />
          </mxGeometry>
        </mxCell>
        <mxCell id="kOnfNO-TKj69ax_tA5gU-176" value="" style="endArrow=none;html=1;rounded=0;entryX=0.5;entryY=1;entryDx=0;entryDy=0;" edge="1" parent="WIyWlLk6GJQsqaUBKTNV-1" target="kOnfNO-TKj69ax_tA5gU-86">
          <mxGeometry width="50" height="50" relative="1" as="geometry">
            <mxPoint x="700" y="420" as="sourcePoint" />
            <mxPoint x="830" y="440" as="targetPoint" />
          </mxGeometry>
        </mxCell>
        <mxCell id="kOnfNO-TKj69ax_tA5gU-177" value="no" style="edgeLabel;html=1;align=center;verticalAlign=middle;resizable=0;points=[];" vertex="1" connectable="0" parent="kOnfNO-TKj69ax_tA5gU-176">
          <mxGeometry x="0.3407" y="1" relative="1" as="geometry">
            <mxPoint as="offset" />
          </mxGeometry>
        </mxCell>
        <mxCell id="kOnfNO-TKj69ax_tA5gU-178" value="" style="edgeStyle=orthogonalEdgeStyle;rounded=0;html=1;jettySize=auto;orthogonalLoop=1;fontSize=11;endArrow=block;endFill=0;endSize=8;strokeWidth=1;shadow=0;labelBackgroundColor=none;exitX=1;exitY=0.5;exitDx=0;exitDy=0;" edge="1" parent="WIyWlLk6GJQsqaUBKTNV-1" source="kOnfNO-TKj69ax_tA5gU-86" target="kOnfNO-TKj69ax_tA5gU-87">
          <mxGeometry relative="1" as="geometry">
            <mxPoint x="620" y="390" as="sourcePoint" />
            <mxPoint x="660" y="390" as="targetPoint" />
          </mxGeometry>
        </mxCell>
        <mxCell id="kOnfNO-TKj69ax_tA5gU-179" value="yes" style="edgeLabel;html=1;align=center;verticalAlign=middle;resizable=0;points=[];" vertex="1" connectable="0" parent="kOnfNO-TKj69ax_tA5gU-178">
          <mxGeometry x="-0.6648" relative="1" as="geometry">
            <mxPoint x="12" as="offset" />
          </mxGeometry>
        </mxCell>
        <mxCell id="kOnfNO-TKj69ax_tA5gU-182" value="" style="endArrow=none;html=1;rounded=0;entryX=0.5;entryY=1;entryDx=0;entryDy=0;" edge="1" parent="WIyWlLk6GJQsqaUBKTNV-1" target="kOnfNO-TKj69ax_tA5gU-87">
          <mxGeometry width="50" height="50" relative="1" as="geometry">
            <mxPoint x="851" y="420" as="sourcePoint" />
            <mxPoint x="710" y="405" as="targetPoint" />
          </mxGeometry>
        </mxCell>
        <mxCell id="kOnfNO-TKj69ax_tA5gU-183" value="yes" style="edgeLabel;html=1;align=center;verticalAlign=middle;resizable=0;points=[];" vertex="1" connectable="0" parent="kOnfNO-TKj69ax_tA5gU-182">
          <mxGeometry x="0.3407" y="1" relative="1" as="geometry">
            <mxPoint as="offset" />
          </mxGeometry>
        </mxCell>
        <mxCell id="kOnfNO-TKj69ax_tA5gU-185" value="" style="edgeStyle=orthogonalEdgeStyle;rounded=0;html=1;jettySize=auto;orthogonalLoop=1;fontSize=11;endArrow=block;endFill=0;endSize=8;strokeWidth=1;shadow=0;labelBackgroundColor=none;exitX=1;exitY=0.5;exitDx=0;exitDy=0;" edge="1" parent="WIyWlLk6GJQsqaUBKTNV-1" source="kOnfNO-TKj69ax_tA5gU-87" target="kOnfNO-TKj69ax_tA5gU-89">
          <mxGeometry relative="1" as="geometry">
            <mxPoint x="760" y="390" as="sourcePoint" />
            <mxPoint x="811" y="390" as="targetPoint" />
          </mxGeometry>
        </mxCell>
        <mxCell id="kOnfNO-TKj69ax_tA5gU-186" value="no" style="edgeLabel;html=1;align=center;verticalAlign=middle;resizable=0;points=[];" vertex="1" connectable="0" parent="kOnfNO-TKj69ax_tA5gU-185">
          <mxGeometry x="-0.6648" relative="1" as="geometry">
            <mxPoint x="4" as="offset" />
          </mxGeometry>
        </mxCell>
        <mxCell id="kOnfNO-TKj69ax_tA5gU-187" value="" style="endArrow=none;html=1;rounded=0;entryX=0.5;entryY=1;entryDx=0;entryDy=0;" edge="1" parent="WIyWlLk6GJQsqaUBKTNV-1" target="kOnfNO-TKj69ax_tA5gU-89">
          <mxGeometry width="50" height="50" relative="1" as="geometry">
            <mxPoint x="1055" y="420" as="sourcePoint" />
            <mxPoint x="861" y="405" as="targetPoint" />
          </mxGeometry>
        </mxCell>
        <mxCell id="kOnfNO-TKj69ax_tA5gU-188" value="yes" style="edgeLabel;html=1;align=center;verticalAlign=middle;resizable=0;points=[];" vertex="1" connectable="0" parent="kOnfNO-TKj69ax_tA5gU-187">
          <mxGeometry x="0.3407" y="1" relative="1" as="geometry">
            <mxPoint x="1" y="3" as="offset" />
          </mxGeometry>
        </mxCell>
        <mxCell id="kOnfNO-TKj69ax_tA5gU-192" value="" style="edgeStyle=orthogonalEdgeStyle;rounded=0;html=1;jettySize=auto;orthogonalLoop=1;fontSize=11;endArrow=block;endFill=0;endSize=8;strokeWidth=1;shadow=0;labelBackgroundColor=none;exitX=1;exitY=0.5;exitDx=0;exitDy=0;" edge="1" parent="WIyWlLk6GJQsqaUBKTNV-1" source="kOnfNO-TKj69ax_tA5gU-89" target="kOnfNO-TKj69ax_tA5gU-91">
          <mxGeometry relative="1" as="geometry">
            <mxPoint x="911" y="390" as="sourcePoint" />
            <mxPoint x="960" y="390" as="targetPoint" />
          </mxGeometry>
        </mxCell>
        <mxCell id="kOnfNO-TKj69ax_tA5gU-193" value="no" style="edgeLabel;html=1;align=center;verticalAlign=middle;resizable=0;points=[];" vertex="1" connectable="0" parent="kOnfNO-TKj69ax_tA5gU-192">
          <mxGeometry x="-0.6648" relative="1" as="geometry">
            <mxPoint x="4" as="offset" />
          </mxGeometry>
        </mxCell>
        <mxCell id="kOnfNO-TKj69ax_tA5gU-195" value="loop" style="rounded=1;whiteSpace=wrap;html=1;fontSize=12;glass=0;strokeWidth=1;shadow=0;" vertex="1" parent="WIyWlLk6GJQsqaUBKTNV-1">
          <mxGeometry x="2360" y="790" width="93" height="40" as="geometry" />
        </mxCell>
        <mxCell id="kOnfNO-TKj69ax_tA5gU-196" value="" style="edgeStyle=orthogonalEdgeStyle;rounded=0;html=1;jettySize=auto;orthogonalLoop=1;fontSize=11;endArrow=block;endFill=0;endSize=8;strokeWidth=1;shadow=0;labelBackgroundColor=none;exitX=1;exitY=0.5;exitDx=0;exitDy=0;entryX=0.91;entryY=-0.013;entryDx=0;entryDy=0;entryPerimeter=0;" edge="1" parent="WIyWlLk6GJQsqaUBKTNV-1" source="kOnfNO-TKj69ax_tA5gU-78" target="kOnfNO-TKj69ax_tA5gU-195">
          <mxGeometry y="10" relative="1" as="geometry">
            <mxPoint as="offset" />
            <mxPoint x="1783" y="615" as="sourcePoint" />
            <mxPoint x="1900" y="615" as="targetPoint" />
          </mxGeometry>
        </mxCell>
        <mxCell id="kOnfNO-TKj69ax_tA5gU-197" value="" style="edgeStyle=orthogonalEdgeStyle;rounded=0;html=1;jettySize=auto;orthogonalLoop=1;fontSize=11;endArrow=block;endFill=0;endSize=8;strokeWidth=1;shadow=0;labelBackgroundColor=none;exitX=1;exitY=0.5;exitDx=0;exitDy=0;entryX=0.75;entryY=0;entryDx=0;entryDy=0;" edge="1" parent="WIyWlLk6GJQsqaUBKTNV-1" source="kOnfNO-TKj69ax_tA5gU-91" target="kOnfNO-TKj69ax_tA5gU-195">
          <mxGeometry y="10" relative="1" as="geometry">
            <mxPoint as="offset" />
            <mxPoint x="497" y="335" as="sourcePoint" />
            <mxPoint x="1837" y="645" as="targetPoint" />
          </mxGeometry>
        </mxCell>
        <mxCell id="kOnfNO-TKj69ax_tA5gU-198" value="" style="edgeStyle=orthogonalEdgeStyle;rounded=0;html=1;jettySize=auto;orthogonalLoop=1;fontSize=11;endArrow=block;endFill=0;endSize=8;strokeWidth=1;shadow=0;labelBackgroundColor=none;exitX=1;exitY=0.5;exitDx=0;exitDy=0;entryX=1;entryY=0.5;entryDx=0;entryDy=0;" edge="1" parent="WIyWlLk6GJQsqaUBKTNV-1" source="kOnfNO-TKj69ax_tA5gU-195" target="kOnfNO-TKj69ax_tA5gU-22">
          <mxGeometry y="10" relative="1" as="geometry">
            <mxPoint as="offset" />
            <mxPoint x="1270" y="390" as="sourcePoint" />
            <mxPoint x="1813" y="645" as="targetPoint" />
          </mxGeometry>
        </mxCell>
        <mxCell id="kOnfNO-TKj69ax_tA5gU-203" value="" style="edgeStyle=orthogonalEdgeStyle;rounded=0;html=1;jettySize=auto;orthogonalLoop=1;fontSize=11;endArrow=block;endFill=0;endSize=8;strokeWidth=1;shadow=0;labelBackgroundColor=none;entryX=0.75;entryY=0;entryDx=0;entryDy=0;" edge="1" parent="WIyWlLk6GJQsqaUBKTNV-1" source="kOnfNO-TKj69ax_tA5gU-1" target="kOnfNO-TKj69ax_tA5gU-83">
          <mxGeometry y="10" relative="1" as="geometry">
            <mxPoint as="offset" />
            <mxPoint x="497" y="335" as="sourcePoint" />
            <mxPoint x="2057" y="670" as="targetPoint" />
          </mxGeometry>
        </mxCell>
        <mxCell id="kOnfNO-TKj69ax_tA5gU-204" value="no" style="edgeLabel;html=1;align=center;verticalAlign=middle;resizable=0;points=[];" vertex="1" connectable="0" parent="kOnfNO-TKj69ax_tA5gU-203">
          <mxGeometry x="-0.9091" y="4" relative="1" as="geometry">
            <mxPoint x="-76" as="offset" />
          </mxGeometry>
        </mxCell>
        <mxCell id="kOnfNO-TKj69ax_tA5gU-207" value="" style="edgeStyle=orthogonalEdgeStyle;rounded=0;html=1;jettySize=auto;orthogonalLoop=1;fontSize=11;endArrow=block;endFill=0;endSize=8;strokeWidth=1;shadow=0;labelBackgroundColor=none;entryX=0;entryY=0.5;entryDx=0;entryDy=0;" edge="1" parent="WIyWlLk6GJQsqaUBKTNV-1" target="kOnfNO-TKj69ax_tA5gU-62">
          <mxGeometry y="10" relative="1" as="geometry">
            <mxPoint as="offset" />
            <mxPoint x="140" y="495" as="sourcePoint" />
            <mxPoint x="210" y="390" as="targetPoint" />
            <Array as="points">
              <mxPoint x="140" y="496" />
              <mxPoint x="170" y="496" />
            </Array>
          </mxGeometry>
        </mxCell>
        <mxCell id="kOnfNO-TKj69ax_tA5gU-208" value="" style="edgeStyle=orthogonalEdgeStyle;rounded=0;html=1;jettySize=auto;orthogonalLoop=1;fontSize=11;endArrow=block;endFill=0;endSize=8;strokeWidth=1;shadow=0;labelBackgroundColor=none;exitX=1;exitY=0.5;exitDx=0;exitDy=0;" edge="1" parent="WIyWlLk6GJQsqaUBKTNV-1" source="kOnfNO-TKj69ax_tA5gU-62" target="kOnfNO-TKj69ax_tA5gU-90">
          <mxGeometry relative="1" as="geometry">
            <mxPoint x="310" y="390" as="sourcePoint" />
            <mxPoint x="340" y="390" as="targetPoint" />
          </mxGeometry>
        </mxCell>
        <mxCell id="kOnfNO-TKj69ax_tA5gU-209" value="" style="edgeStyle=orthogonalEdgeStyle;rounded=0;html=1;jettySize=auto;orthogonalLoop=1;fontSize=11;endArrow=block;endFill=0;endSize=8;strokeWidth=1;shadow=0;labelBackgroundColor=none;" edge="1" parent="WIyWlLk6GJQsqaUBKTNV-1" source="kOnfNO-TKj69ax_tA5gU-90" target="kOnfNO-TKj69ax_tA5gU-92">
          <mxGeometry relative="1" as="geometry">
            <mxPoint x="460" y="390" as="sourcePoint" />
            <mxPoint x="490" y="390" as="targetPoint" />
          </mxGeometry>
        </mxCell>
        <mxCell id="kOnfNO-TKj69ax_tA5gU-211" value="no" style="edgeStyle=orthogonalEdgeStyle;rounded=0;html=1;jettySize=auto;orthogonalLoop=1;fontSize=11;endArrow=block;endFill=0;endSize=8;strokeWidth=1;shadow=0;labelBackgroundColor=none;exitX=0.5;exitY=1;exitDx=0;exitDy=0;" edge="1" parent="WIyWlLk6GJQsqaUBKTNV-1" source="kOnfNO-TKj69ax_tA5gU-92" target="kOnfNO-TKj69ax_tA5gU-83">
          <mxGeometry x="-0.9678" relative="1" as="geometry">
            <mxPoint as="offset" />
            <mxPoint x="460" y="505" as="sourcePoint" />
            <mxPoint x="2030" y="580" as="targetPoint" />
            <Array as="points">
              <mxPoint x="536" y="560" />
              <mxPoint x="2160" y="560" />
            </Array>
          </mxGeometry>
        </mxCell>
        <mxCell id="kOnfNO-TKj69ax_tA5gU-212" value="" style="edgeStyle=orthogonalEdgeStyle;rounded=0;html=1;jettySize=auto;orthogonalLoop=1;fontSize=11;endArrow=block;endFill=0;endSize=8;strokeWidth=1;shadow=0;labelBackgroundColor=none;exitX=1;exitY=0.5;exitDx=0;exitDy=0;" edge="1" parent="WIyWlLk6GJQsqaUBKTNV-1" source="kOnfNO-TKj69ax_tA5gU-92" target="kOnfNO-TKj69ax_tA5gU-93">
          <mxGeometry relative="1" as="geometry">
            <mxPoint x="620" y="390" as="sourcePoint" />
            <mxPoint x="660" y="390" as="targetPoint" />
          </mxGeometry>
        </mxCell>
        <mxCell id="kOnfNO-TKj69ax_tA5gU-213" value="yes" style="edgeLabel;html=1;align=center;verticalAlign=middle;resizable=0;points=[];" vertex="1" connectable="0" parent="kOnfNO-TKj69ax_tA5gU-212">
          <mxGeometry x="-0.6648" relative="1" as="geometry">
            <mxPoint x="3" as="offset" />
          </mxGeometry>
        </mxCell>
        <mxCell id="kOnfNO-TKj69ax_tA5gU-214" value="" style="edgeStyle=orthogonalEdgeStyle;rounded=0;html=1;jettySize=auto;orthogonalLoop=1;fontSize=11;endArrow=block;endFill=0;endSize=8;strokeWidth=1;shadow=0;labelBackgroundColor=none;exitX=0.5;exitY=1;exitDx=0;exitDy=0;" edge="1" parent="WIyWlLk6GJQsqaUBKTNV-1" source="kOnfNO-TKj69ax_tA5gU-93" target="kOnfNO-TKj69ax_tA5gU-97">
          <mxGeometry relative="1" as="geometry">
            <mxPoint x="597" y="505" as="sourcePoint" />
            <mxPoint x="730" y="525" as="targetPoint" />
            <Array as="points">
              <mxPoint x="687" y="525" />
            </Array>
          </mxGeometry>
        </mxCell>
        <mxCell id="kOnfNO-TKj69ax_tA5gU-215" value="no" style="edgeLabel;html=1;align=center;verticalAlign=middle;resizable=0;points=[];" vertex="1" connectable="0" parent="kOnfNO-TKj69ax_tA5gU-214">
          <mxGeometry x="-0.6648" relative="1" as="geometry">
            <mxPoint x="13" as="offset" />
          </mxGeometry>
        </mxCell>
        <mxCell id="kOnfNO-TKj69ax_tA5gU-218" value="" style="edgeStyle=orthogonalEdgeStyle;rounded=0;html=1;jettySize=auto;orthogonalLoop=1;fontSize=11;endArrow=block;endFill=0;endSize=8;strokeWidth=1;shadow=0;labelBackgroundColor=none;exitX=0.5;exitY=0;exitDx=0;exitDy=0;entryX=0;entryY=0.5;entryDx=0;entryDy=0;" edge="1" parent="WIyWlLk6GJQsqaUBKTNV-1" source="kOnfNO-TKj69ax_tA5gU-93" target="kOnfNO-TKj69ax_tA5gU-96">
          <mxGeometry relative="1" as="geometry">
            <mxPoint x="686.75" y="460" as="sourcePoint" />
            <mxPoint x="770" y="455" as="targetPoint" />
            <Array as="points">
              <mxPoint x="687" y="455" />
            </Array>
          </mxGeometry>
        </mxCell>
        <mxCell id="kOnfNO-TKj69ax_tA5gU-219" value="yes" style="edgeLabel;html=1;align=center;verticalAlign=middle;resizable=0;points=[];" vertex="1" connectable="0" parent="kOnfNO-TKj69ax_tA5gU-218">
          <mxGeometry x="-0.6648" relative="1" as="geometry">
            <mxPoint x="15" as="offset" />
          </mxGeometry>
        </mxCell>
        <mxCell id="kOnfNO-TKj69ax_tA5gU-220" value="" style="endArrow=none;html=1;rounded=0;entryX=0.5;entryY=1;entryDx=0;entryDy=0;" edge="1" parent="WIyWlLk6GJQsqaUBKTNV-1" target="kOnfNO-TKj69ax_tA5gU-97">
          <mxGeometry width="50" height="50" relative="1" as="geometry">
            <mxPoint x="838" y="560" as="sourcePoint" />
            <mxPoint x="710" y="405" as="targetPoint" />
          </mxGeometry>
        </mxCell>
        <mxCell id="kOnfNO-TKj69ax_tA5gU-221" value="no" style="edgeLabel;html=1;align=center;verticalAlign=middle;resizable=0;points=[];" vertex="1" connectable="0" parent="kOnfNO-TKj69ax_tA5gU-220">
          <mxGeometry x="0.3407" y="1" relative="1" as="geometry">
            <mxPoint as="offset" />
          </mxGeometry>
        </mxCell>
        <mxCell id="kOnfNO-TKj69ax_tA5gU-223" value="yes" style="edgeStyle=orthogonalEdgeStyle;rounded=0;html=1;jettySize=auto;orthogonalLoop=1;fontSize=11;endArrow=block;endFill=0;endSize=8;strokeWidth=1;shadow=0;labelBackgroundColor=none;entryX=0;entryY=0.5;entryDx=0;entryDy=0;" edge="1" parent="WIyWlLk6GJQsqaUBKTNV-1" source="kOnfNO-TKj69ax_tA5gU-97" target="kOnfNO-TKj69ax_tA5gU-98">
          <mxGeometry x="-0.5" y="5" relative="1" as="geometry">
            <mxPoint as="offset" />
            <mxPoint x="460" y="505" as="sourcePoint" />
            <mxPoint x="497" y="505" as="targetPoint" />
          </mxGeometry>
        </mxCell>
        <mxCell id="kOnfNO-TKj69ax_tA5gU-224" value="" style="endArrow=none;html=1;rounded=0;entryX=0.5;entryY=1;entryDx=0;entryDy=0;" edge="1" parent="WIyWlLk6GJQsqaUBKTNV-1" target="kOnfNO-TKj69ax_tA5gU-98">
          <mxGeometry width="50" height="50" relative="1" as="geometry">
            <mxPoint x="1018" y="560" as="sourcePoint" />
            <mxPoint x="848" y="550" as="targetPoint" />
          </mxGeometry>
        </mxCell>
        <mxCell id="kOnfNO-TKj69ax_tA5gU-225" value="no" style="edgeLabel;html=1;align=center;verticalAlign=middle;resizable=0;points=[];" vertex="1" connectable="0" parent="kOnfNO-TKj69ax_tA5gU-224">
          <mxGeometry x="0.3407" y="1" relative="1" as="geometry">
            <mxPoint as="offset" />
          </mxGeometry>
        </mxCell>
        <mxCell id="kOnfNO-TKj69ax_tA5gU-226" value="" style="edgeStyle=orthogonalEdgeStyle;rounded=0;html=1;jettySize=auto;orthogonalLoop=1;fontSize=11;endArrow=block;endFill=0;endSize=8;strokeWidth=1;shadow=0;labelBackgroundColor=none;entryX=0.5;entryY=0;entryDx=0;entryDy=0;" edge="1" parent="WIyWlLk6GJQsqaUBKTNV-1" source="kOnfNO-TKj69ax_tA5gU-96" target="kOnfNO-TKj69ax_tA5gU-195">
          <mxGeometry y="10" relative="1" as="geometry">
            <mxPoint as="offset" />
            <mxPoint x="1270" y="390" as="sourcePoint" />
            <mxPoint x="2033" y="670" as="targetPoint" />
          </mxGeometry>
        </mxCell>
        <mxCell id="kOnfNO-TKj69ax_tA5gU-227" value="yes" style="edgeStyle=orthogonalEdgeStyle;rounded=0;html=1;jettySize=auto;orthogonalLoop=1;fontSize=11;endArrow=block;endFill=0;endSize=8;strokeWidth=1;shadow=0;labelBackgroundColor=none;exitX=1;exitY=0.5;exitDx=0;exitDy=0;" edge="1" parent="WIyWlLk6GJQsqaUBKTNV-1" source="kOnfNO-TKj69ax_tA5gU-98" target="kOnfNO-TKj69ax_tA5gU-101">
          <mxGeometry x="-0.3171" y="5" relative="1" as="geometry">
            <mxPoint as="offset" />
            <mxPoint x="920" y="535" as="sourcePoint" />
            <mxPoint x="952" y="535" as="targetPoint" />
          </mxGeometry>
        </mxCell>
        <mxCell id="kOnfNO-TKj69ax_tA5gU-230" value="yes" style="edgeStyle=orthogonalEdgeStyle;rounded=0;html=1;jettySize=auto;orthogonalLoop=1;fontSize=11;endArrow=block;endFill=0;endSize=8;strokeWidth=1;shadow=0;labelBackgroundColor=none;exitX=0.5;exitY=0;exitDx=0;exitDy=0;" edge="1" parent="WIyWlLk6GJQsqaUBKTNV-1" source="kOnfNO-TKj69ax_tA5gU-101" target="kOnfNO-TKj69ax_tA5gU-102">
          <mxGeometry x="-0.3171" y="5" relative="1" as="geometry">
            <mxPoint as="offset" />
            <mxPoint x="1096" y="535" as="sourcePoint" />
            <mxPoint x="1135" y="535" as="targetPoint" />
            <Array as="points">
              <mxPoint x="1210" y="485" />
            </Array>
          </mxGeometry>
        </mxCell>
        <mxCell id="kOnfNO-TKj69ax_tA5gU-231" value="no" style="edgeStyle=orthogonalEdgeStyle;rounded=0;html=1;jettySize=auto;orthogonalLoop=1;fontSize=11;endArrow=block;endFill=0;endSize=8;strokeWidth=1;shadow=0;labelBackgroundColor=none;exitX=1;exitY=0.5;exitDx=0;exitDy=0;" edge="1" parent="WIyWlLk6GJQsqaUBKTNV-1" source="kOnfNO-TKj69ax_tA5gU-101" target="kOnfNO-TKj69ax_tA5gU-115">
          <mxGeometry x="-0.5652" relative="1" as="geometry">
            <mxPoint as="offset" />
            <mxPoint x="1096" y="535" as="sourcePoint" />
            <mxPoint x="1135" y="535" as="targetPoint" />
          </mxGeometry>
        </mxCell>
        <mxCell id="kOnfNO-TKj69ax_tA5gU-233" value="" style="endArrow=none;html=1;rounded=0;entryX=0.5;entryY=1;entryDx=0;entryDy=0;" edge="1" parent="WIyWlLk6GJQsqaUBKTNV-1" target="kOnfNO-TKj69ax_tA5gU-102">
          <mxGeometry width="50" height="50" relative="1" as="geometry">
            <mxPoint x="1360" y="560" as="sourcePoint" />
            <mxPoint x="1028" y="550" as="targetPoint" />
          </mxGeometry>
        </mxCell>
        <mxCell id="kOnfNO-TKj69ax_tA5gU-234" value="no" style="edgeLabel;html=1;align=center;verticalAlign=middle;resizable=0;points=[];" vertex="1" connectable="0" parent="kOnfNO-TKj69ax_tA5gU-233">
          <mxGeometry x="0.3407" y="1" relative="1" as="geometry">
            <mxPoint x="1" y="13" as="offset" />
          </mxGeometry>
        </mxCell>
        <mxCell id="kOnfNO-TKj69ax_tA5gU-235" value="yes" style="edgeStyle=orthogonalEdgeStyle;rounded=0;html=1;jettySize=auto;orthogonalLoop=1;fontSize=11;endArrow=block;endFill=0;endSize=8;strokeWidth=1;shadow=0;labelBackgroundColor=none;exitX=1;exitY=0.5;exitDx=0;exitDy=0;" edge="1" parent="WIyWlLk6GJQsqaUBKTNV-1" source="kOnfNO-TKj69ax_tA5gU-102" target="kOnfNO-TKj69ax_tA5gU-115">
          <mxGeometry x="-0.3171" y="5" relative="1" as="geometry">
            <mxPoint as="offset" />
            <mxPoint x="1220" y="510" as="sourcePoint" />
            <mxPoint x="1300" y="495" as="targetPoint" />
            <Array as="points">
              <mxPoint x="1470" y="485" />
            </Array>
          </mxGeometry>
        </mxCell>
        <mxCell id="kOnfNO-TKj69ax_tA5gU-236" value="" style="endArrow=none;html=1;rounded=0;entryX=0.5;entryY=1;entryDx=0;entryDy=0;" edge="1" parent="WIyWlLk6GJQsqaUBKTNV-1" target="kOnfNO-TKj69ax_tA5gU-115">
          <mxGeometry width="50" height="50" relative="1" as="geometry">
            <mxPoint x="1470" y="560" as="sourcePoint" />
            <mxPoint x="1370" y="520" as="targetPoint" />
          </mxGeometry>
        </mxCell>
        <mxCell id="kOnfNO-TKj69ax_tA5gU-237" value="no" style="edgeLabel;html=1;align=center;verticalAlign=middle;resizable=0;points=[];" vertex="1" connectable="0" parent="kOnfNO-TKj69ax_tA5gU-236">
          <mxGeometry x="0.3407" y="1" relative="1" as="geometry">
            <mxPoint x="1" as="offset" />
          </mxGeometry>
        </mxCell>
        <mxCell id="kOnfNO-TKj69ax_tA5gU-238" value="yes" style="edgeStyle=orthogonalEdgeStyle;rounded=0;html=1;jettySize=auto;orthogonalLoop=1;fontSize=11;endArrow=block;endFill=0;endSize=8;strokeWidth=1;shadow=0;labelBackgroundColor=none;exitX=1;exitY=0.5;exitDx=0;exitDy=0;entryX=0;entryY=0.5;entryDx=0;entryDy=0;" edge="1" parent="WIyWlLk6GJQsqaUBKTNV-1" source="kOnfNO-TKj69ax_tA5gU-115" target="kOnfNO-TKj69ax_tA5gU-100">
          <mxGeometry x="-0.2593" y="5" relative="1" as="geometry">
            <mxPoint as="offset" />
            <mxPoint x="1220" y="510" as="sourcePoint" />
            <mxPoint x="1300" y="495" as="targetPoint" />
            <Array as="points">
              <mxPoint x="1550" y="525" />
              <mxPoint x="1550" y="525" />
            </Array>
          </mxGeometry>
        </mxCell>
        <mxCell id="kOnfNO-TKj69ax_tA5gU-239" value="" style="edgeStyle=orthogonalEdgeStyle;rounded=0;html=1;jettySize=auto;orthogonalLoop=1;fontSize=11;endArrow=block;endFill=0;endSize=8;strokeWidth=1;shadow=0;labelBackgroundColor=none;entryX=0.374;entryY=0.01;entryDx=0;entryDy=0;exitX=1;exitY=0.5;exitDx=0;exitDy=0;entryPerimeter=0;" edge="1" parent="WIyWlLk6GJQsqaUBKTNV-1" source="kOnfNO-TKj69ax_tA5gU-100" target="kOnfNO-TKj69ax_tA5gU-195">
          <mxGeometry y="10" relative="1" as="geometry">
            <mxPoint as="offset" />
            <mxPoint x="860" y="465" as="sourcePoint" />
            <mxPoint x="2057" y="670" as="targetPoint" />
          </mxGeometry>
        </mxCell>
        <mxCell id="kOnfNO-TKj69ax_tA5gU-240" value="case mdf" style="rhombus;whiteSpace=wrap;html=1;shadow=0;fontFamily=Helvetica;fontSize=12;align=center;strokeWidth=1;spacing=6;spacingTop=-4;" vertex="1" parent="WIyWlLk6GJQsqaUBKTNV-1">
          <mxGeometry x="190.57" y="642.5" width="100" height="30" as="geometry" />
        </mxCell>
        <mxCell id="kOnfNO-TKj69ax_tA5gU-241" value="get lvalue type &amp;amp; entity by orr" style="rounded=1;whiteSpace=wrap;html=1;fontSize=12;glass=0;strokeWidth=1;shadow=0;" vertex="1" parent="WIyWlLk6GJQsqaUBKTNV-1">
          <mxGeometry x="340" y="642.5" width="120" height="30" as="geometry" />
        </mxCell>
        <mxCell id="kOnfNO-TKj69ax_tA5gU-242" value="compatible" style="rhombus;whiteSpace=wrap;html=1;shadow=0;fontFamily=Helvetica;fontSize=12;align=center;strokeWidth=1;spacing=6;spacingTop=-4;" vertex="1" parent="WIyWlLk6GJQsqaUBKTNV-1">
          <mxGeometry x="496.5" y="642.5" width="100" height="30" as="geometry" />
        </mxCell>
        <mxCell id="kOnfNO-TKj69ax_tA5gU-243" value="entity is array or function" style="rhombus;whiteSpace=wrap;html=1;shadow=0;fontFamily=Helvetica;fontSize=12;align=center;strokeWidth=1;spacing=6;spacingTop=-4;" vertex="1" parent="WIyWlLk6GJQsqaUBKTNV-1">
          <mxGeometry x="633.5" y="632.5" width="126.5" height="50" as="geometry" />
        </mxCell>
        <mxCell id="kOnfNO-TKj69ax_tA5gU-245" value="correctly&amp;nbsp;&lt;span style=&quot;background-color: initial;&quot;&gt;designated&lt;/span&gt;" style="rhombus;whiteSpace=wrap;html=1;shadow=0;fontFamily=Helvetica;fontSize=12;align=center;strokeWidth=1;spacing=6;spacingTop=-4;" vertex="1" parent="WIyWlLk6GJQsqaUBKTNV-1">
          <mxGeometry x="802.5" y="642.5" width="145" height="30" as="geometry" />
        </mxCell>
        <mxCell id="kOnfNO-TKj69ax_tA5gU-246" value="destroyed" style="rhombus;whiteSpace=wrap;html=1;shadow=0;fontFamily=Helvetica;fontSize=12;align=center;strokeWidth=1;spacing=6;spacingTop=-4;" vertex="1" parent="WIyWlLk6GJQsqaUBKTNV-1">
          <mxGeometry x="990" y="642.5" width="136" height="30" as="geometry" />
        </mxCell>
        <mxCell id="kOnfNO-TKj69ax_tA5gU-247" value="write value" style="rounded=1;whiteSpace=wrap;html=1;fontSize=12;glass=0;strokeWidth=1;shadow=0;" vertex="1" parent="WIyWlLk6GJQsqaUBKTNV-1">
          <mxGeometry x="2060" y="641.5" width="70" height="30" as="geometry" />
        </mxCell>
        <mxCell id="kOnfNO-TKj69ax_tA5gU-248" value="entity is const&lt;div&gt;qualified&lt;/div&gt;" style="rhombus;whiteSpace=wrap;html=1;shadow=0;fontFamily=Helvetica;fontSize=12;align=center;strokeWidth=1;spacing=6;spacingTop=-4;" vertex="1" parent="WIyWlLk6GJQsqaUBKTNV-1">
          <mxGeometry x="1160" y="631.5" width="170" height="50" as="geometry" />
        </mxCell>
        <mxCell id="kOnfNO-TKj69ax_tA5gU-250" value="sequenced&lt;div&gt;access&lt;/div&gt;" style="rhombus;whiteSpace=wrap;html=1;shadow=0;fontFamily=Helvetica;fontSize=12;align=center;strokeWidth=1;spacing=6;spacingTop=-4;" vertex="1" parent="WIyWlLk6GJQsqaUBKTNV-1">
          <mxGeometry x="1370" y="636.5" width="120" height="40" as="geometry" />
        </mxCell>
        <mxCell id="kOnfNO-TKj69ax_tA5gU-252" value="" style="edgeStyle=orthogonalEdgeStyle;rounded=0;html=1;jettySize=auto;orthogonalLoop=1;fontSize=11;endArrow=block;endFill=0;endSize=8;strokeWidth=1;shadow=0;labelBackgroundColor=none;exitX=1;exitY=0.5;exitDx=0;exitDy=0;" edge="1" source="kOnfNO-TKj69ax_tA5gU-240" target="kOnfNO-TKj69ax_tA5gU-241" parent="WIyWlLk6GJQsqaUBKTNV-1">
          <mxGeometry relative="1" as="geometry">
            <mxPoint x="320" y="552.5" as="sourcePoint" />
            <mxPoint x="350" y="552.5" as="targetPoint" />
          </mxGeometry>
        </mxCell>
        <mxCell id="kOnfNO-TKj69ax_tA5gU-253" value="" style="edgeStyle=orthogonalEdgeStyle;rounded=0;html=1;jettySize=auto;orthogonalLoop=1;fontSize=11;endArrow=block;endFill=0;endSize=8;strokeWidth=1;shadow=0;labelBackgroundColor=none;" edge="1" source="kOnfNO-TKj69ax_tA5gU-241" target="kOnfNO-TKj69ax_tA5gU-242" parent="WIyWlLk6GJQsqaUBKTNV-1">
          <mxGeometry relative="1" as="geometry">
            <mxPoint x="470" y="552.5" as="sourcePoint" />
            <mxPoint x="500" y="552.5" as="targetPoint" />
          </mxGeometry>
        </mxCell>
        <mxCell id="kOnfNO-TKj69ax_tA5gU-254" value="" style="edgeStyle=orthogonalEdgeStyle;rounded=0;html=1;jettySize=auto;orthogonalLoop=1;fontSize=11;endArrow=block;endFill=0;endSize=8;strokeWidth=1;shadow=0;labelBackgroundColor=none;exitX=1;exitY=0.5;exitDx=0;exitDy=0;" edge="1" source="kOnfNO-TKj69ax_tA5gU-242" target="kOnfNO-TKj69ax_tA5gU-243" parent="WIyWlLk6GJQsqaUBKTNV-1">
          <mxGeometry relative="1" as="geometry">
            <mxPoint x="630" y="552.5" as="sourcePoint" />
            <mxPoint x="670" y="552.5" as="targetPoint" />
          </mxGeometry>
        </mxCell>
        <mxCell id="kOnfNO-TKj69ax_tA5gU-255" value="yes" style="edgeLabel;html=1;align=center;verticalAlign=middle;resizable=0;points=[];" vertex="1" connectable="0" parent="kOnfNO-TKj69ax_tA5gU-254">
          <mxGeometry x="-0.6648" relative="1" as="geometry">
            <mxPoint x="3" as="offset" />
          </mxGeometry>
        </mxCell>
        <mxCell id="kOnfNO-TKj69ax_tA5gU-256" value="" style="edgeStyle=orthogonalEdgeStyle;rounded=0;html=1;jettySize=auto;orthogonalLoop=1;fontSize=11;endArrow=block;endFill=0;endSize=8;strokeWidth=1;shadow=0;labelBackgroundColor=none;exitX=1;exitY=0.5;exitDx=0;exitDy=0;entryX=0;entryY=0.5;entryDx=0;entryDy=0;" edge="1" source="kOnfNO-TKj69ax_tA5gU-243" target="kOnfNO-TKj69ax_tA5gU-245" parent="WIyWlLk6GJQsqaUBKTNV-1">
          <mxGeometry relative="1" as="geometry">
            <mxPoint x="607" y="667.5" as="sourcePoint" />
            <mxPoint x="800" y="672.5" as="targetPoint" />
            <Array as="points">
              <mxPoint x="790" y="657.5" />
            </Array>
          </mxGeometry>
        </mxCell>
        <mxCell id="kOnfNO-TKj69ax_tA5gU-257" value="no" style="edgeLabel;html=1;align=center;verticalAlign=middle;resizable=0;points=[];" vertex="1" connectable="0" parent="kOnfNO-TKj69ax_tA5gU-256">
          <mxGeometry x="-0.6648" relative="1" as="geometry">
            <mxPoint x="8" as="offset" />
          </mxGeometry>
        </mxCell>
        <mxCell id="kOnfNO-TKj69ax_tA5gU-260" value="" style="endArrow=none;html=1;rounded=0;entryX=0.5;entryY=1;entryDx=0;entryDy=0;" edge="1" target="kOnfNO-TKj69ax_tA5gU-245" parent="WIyWlLk6GJQsqaUBKTNV-1">
          <mxGeometry width="50" height="50" relative="1" as="geometry">
            <mxPoint x="875" y="710" as="sourcePoint" />
            <mxPoint x="745" y="541.5" as="targetPoint" />
          </mxGeometry>
        </mxCell>
        <mxCell id="kOnfNO-TKj69ax_tA5gU-261" value="no" style="edgeLabel;html=1;align=center;verticalAlign=middle;resizable=0;points=[];" vertex="1" connectable="0" parent="kOnfNO-TKj69ax_tA5gU-260">
          <mxGeometry x="0.3407" y="1" relative="1" as="geometry">
            <mxPoint as="offset" />
          </mxGeometry>
        </mxCell>
        <mxCell id="kOnfNO-TKj69ax_tA5gU-262" value="yes" style="edgeStyle=orthogonalEdgeStyle;rounded=0;html=1;jettySize=auto;orthogonalLoop=1;fontSize=11;endArrow=block;endFill=0;endSize=8;strokeWidth=1;shadow=0;labelBackgroundColor=none;entryX=0;entryY=0.5;entryDx=0;entryDy=0;" edge="1" source="kOnfNO-TKj69ax_tA5gU-245" target="kOnfNO-TKj69ax_tA5gU-246" parent="WIyWlLk6GJQsqaUBKTNV-1">
          <mxGeometry x="-0.5" y="5" relative="1" as="geometry">
            <mxPoint as="offset" />
            <mxPoint x="495" y="641.5" as="sourcePoint" />
            <mxPoint x="532" y="641.5" as="targetPoint" />
          </mxGeometry>
        </mxCell>
        <mxCell id="kOnfNO-TKj69ax_tA5gU-263" value="" style="endArrow=none;html=1;rounded=0;entryX=0.5;entryY=1;entryDx=0;entryDy=0;" edge="1" target="kOnfNO-TKj69ax_tA5gU-246" parent="WIyWlLk6GJQsqaUBKTNV-1">
          <mxGeometry width="50" height="50" relative="1" as="geometry">
            <mxPoint x="1058" y="710" as="sourcePoint" />
            <mxPoint x="883" y="686.5" as="targetPoint" />
          </mxGeometry>
        </mxCell>
        <mxCell id="kOnfNO-TKj69ax_tA5gU-264" value="yes" style="edgeLabel;html=1;align=center;verticalAlign=middle;resizable=0;points=[];" vertex="1" connectable="0" parent="kOnfNO-TKj69ax_tA5gU-263">
          <mxGeometry x="0.3407" y="1" relative="1" as="geometry">
            <mxPoint as="offset" />
          </mxGeometry>
        </mxCell>
        <mxCell id="kOnfNO-TKj69ax_tA5gU-265" value="no" style="edgeStyle=orthogonalEdgeStyle;rounded=0;html=1;jettySize=auto;orthogonalLoop=1;fontSize=11;endArrow=block;endFill=0;endSize=8;strokeWidth=1;shadow=0;labelBackgroundColor=none;exitX=1;exitY=0.5;exitDx=0;exitDy=0;" edge="1" source="kOnfNO-TKj69ax_tA5gU-246" target="kOnfNO-TKj69ax_tA5gU-248" parent="WIyWlLk6GJQsqaUBKTNV-1">
          <mxGeometry x="-0.3171" y="5" relative="1" as="geometry">
            <mxPoint as="offset" />
            <mxPoint x="955" y="671.5" as="sourcePoint" />
            <mxPoint x="987" y="671.5" as="targetPoint" />
          </mxGeometry>
        </mxCell>
        <mxCell id="kOnfNO-TKj69ax_tA5gU-267" value="no" style="edgeStyle=orthogonalEdgeStyle;rounded=0;html=1;jettySize=auto;orthogonalLoop=1;fontSize=11;endArrow=block;endFill=0;endSize=8;strokeWidth=1;shadow=0;labelBackgroundColor=none;exitX=1;exitY=0.5;exitDx=0;exitDy=0;" edge="1" source="kOnfNO-TKj69ax_tA5gU-248" target="kOnfNO-TKj69ax_tA5gU-250" parent="WIyWlLk6GJQsqaUBKTNV-1">
          <mxGeometry x="-0.5652" relative="1" as="geometry">
            <mxPoint as="offset" />
            <mxPoint x="1131" y="671.5" as="sourcePoint" />
            <mxPoint x="1170" y="671.5" as="targetPoint" />
          </mxGeometry>
        </mxCell>
        <mxCell id="kOnfNO-TKj69ax_tA5gU-271" value="" style="endArrow=none;html=1;rounded=0;entryX=0.5;entryY=1;entryDx=0;entryDy=0;" edge="1" target="kOnfNO-TKj69ax_tA5gU-250" parent="WIyWlLk6GJQsqaUBKTNV-1">
          <mxGeometry width="50" height="50" relative="1" as="geometry">
            <mxPoint x="1430" y="710" as="sourcePoint" />
            <mxPoint x="1405" y="656.5" as="targetPoint" />
          </mxGeometry>
        </mxCell>
        <mxCell id="kOnfNO-TKj69ax_tA5gU-272" value="no" style="edgeLabel;html=1;align=center;verticalAlign=middle;resizable=0;points=[];" vertex="1" connectable="0" parent="kOnfNO-TKj69ax_tA5gU-271">
          <mxGeometry x="0.3407" y="1" relative="1" as="geometry">
            <mxPoint x="1" as="offset" />
          </mxGeometry>
        </mxCell>
        <mxCell id="kOnfNO-TKj69ax_tA5gU-275" value="pop stack" style="rounded=1;whiteSpace=wrap;html=1;fontSize=12;glass=0;strokeWidth=1;shadow=0;" vertex="1" parent="WIyWlLk6GJQsqaUBKTNV-1">
          <mxGeometry x="1520" y="642.5" width="70" height="30" as="geometry" />
        </mxCell>
        <mxCell id="kOnfNO-TKj69ax_tA5gU-276" value="indeterminate&lt;div&gt;representation&lt;/div&gt;" style="rhombus;whiteSpace=wrap;html=1;shadow=0;fontFamily=Helvetica;fontSize=12;align=center;strokeWidth=1;spacing=6;spacingTop=-4;" vertex="1" parent="WIyWlLk6GJQsqaUBKTNV-1">
          <mxGeometry x="1620" y="622" width="130" height="71" as="geometry" />
        </mxCell>
        <mxCell id="kOnfNO-TKj69ax_tA5gU-277" value="value is directly&lt;div&gt;read by object&lt;/div&gt;" style="rhombus;whiteSpace=wrap;html=1;shadow=0;fontFamily=Helvetica;fontSize=12;align=center;strokeWidth=1;spacing=6;spacingTop=-4;" vertex="1" parent="WIyWlLk6GJQsqaUBKTNV-1">
          <mxGeometry x="1780" y="630" width="160" height="55" as="geometry" />
        </mxCell>
        <mxCell id="kOnfNO-TKj69ax_tA5gU-280" value="yes" style="edgeStyle=orthogonalEdgeStyle;rounded=0;html=1;jettySize=auto;orthogonalLoop=1;fontSize=11;endArrow=block;endFill=0;endSize=8;strokeWidth=1;shadow=0;labelBackgroundColor=none;exitX=1;exitY=0.5;exitDx=0;exitDy=0;" edge="1" parent="WIyWlLk6GJQsqaUBKTNV-1" source="kOnfNO-TKj69ax_tA5gU-250" target="kOnfNO-TKj69ax_tA5gU-275">
          <mxGeometry x="-0.5652" relative="1" as="geometry">
            <mxPoint as="offset" />
            <mxPoint x="1340" y="667" as="sourcePoint" />
            <mxPoint x="1380" y="667" as="targetPoint" />
          </mxGeometry>
        </mxCell>
        <mxCell id="kOnfNO-TKj69ax_tA5gU-282" value="" style="edgeStyle=orthogonalEdgeStyle;rounded=0;html=1;jettySize=auto;orthogonalLoop=1;fontSize=11;endArrow=block;endFill=0;endSize=8;strokeWidth=1;shadow=0;labelBackgroundColor=none;exitX=1;exitY=0.5;exitDx=0;exitDy=0;" edge="1" parent="WIyWlLk6GJQsqaUBKTNV-1" source="kOnfNO-TKj69ax_tA5gU-275" target="kOnfNO-TKj69ax_tA5gU-276">
          <mxGeometry x="0.3333" y="-56" relative="1" as="geometry">
            <mxPoint x="-20" y="-3" as="offset" />
            <mxPoint x="1560" y="710" as="sourcePoint" />
            <mxPoint x="1590" y="711" as="targetPoint" />
          </mxGeometry>
        </mxCell>
        <mxCell id="kOnfNO-TKj69ax_tA5gU-283" value="no" style="edgeStyle=orthogonalEdgeStyle;rounded=0;html=1;jettySize=auto;orthogonalLoop=1;fontSize=11;endArrow=block;endFill=0;endSize=8;strokeWidth=1;shadow=0;labelBackgroundColor=none;exitX=1;exitY=0.5;exitDx=0;exitDy=0;" edge="1" parent="WIyWlLk6GJQsqaUBKTNV-1" source="kOnfNO-TKj69ax_tA5gU-276" target="kOnfNO-TKj69ax_tA5gU-277">
          <mxGeometry x="-0.6004" y="8" relative="1" as="geometry">
            <mxPoint as="offset" />
            <mxPoint x="1600" y="668" as="sourcePoint" />
            <mxPoint x="1780" y="658" as="targetPoint" />
          </mxGeometry>
        </mxCell>
        <mxCell id="kOnfNO-TKj69ax_tA5gU-284" value="no" style="edgeStyle=orthogonalEdgeStyle;rounded=0;html=1;jettySize=auto;orthogonalLoop=1;fontSize=11;endArrow=block;endFill=0;endSize=8;strokeWidth=1;shadow=0;labelBackgroundColor=none;" edge="1" parent="WIyWlLk6GJQsqaUBKTNV-1">
          <mxGeometry x="-0.6004" y="8" relative="1" as="geometry">
            <mxPoint as="offset" />
            <mxPoint x="1939.9959228650132" y="657.9951515151516" as="sourcePoint" />
            <mxPoint x="2060.04" y="656.9951515151516" as="targetPoint" />
            <Array as="points" />
          </mxGeometry>
        </mxCell>
        <mxCell id="kOnfNO-TKj69ax_tA5gU-285" value="that object is inexactly overlap with this object" style="rhombus;whiteSpace=wrap;html=1;shadow=0;fontFamily=Helvetica;fontSize=12;align=center;strokeWidth=1;spacing=6;spacingTop=-4;" vertex="1" parent="WIyWlLk6GJQsqaUBKTNV-1">
          <mxGeometry x="1898" y="570" width="172" height="60" as="geometry" />
        </mxCell>
        <mxCell id="kOnfNO-TKj69ax_tA5gU-286" value="yes" style="edgeStyle=orthogonalEdgeStyle;rounded=0;html=1;jettySize=auto;orthogonalLoop=1;fontSize=11;endArrow=block;endFill=0;endSize=8;strokeWidth=1;shadow=0;labelBackgroundColor=none;exitX=0.5;exitY=0;exitDx=0;exitDy=0;entryX=0;entryY=0.5;entryDx=0;entryDy=0;" edge="1" parent="WIyWlLk6GJQsqaUBKTNV-1" source="kOnfNO-TKj69ax_tA5gU-277" target="kOnfNO-TKj69ax_tA5gU-285">
          <mxGeometry x="-0.4113" y="10" relative="1" as="geometry">
            <mxPoint as="offset" />
            <mxPoint x="1760" y="668" as="sourcePoint" />
            <mxPoint x="1790" y="668" as="targetPoint" />
          </mxGeometry>
        </mxCell>
        <mxCell id="kOnfNO-TKj69ax_tA5gU-287" value="no" style="edgeStyle=orthogonalEdgeStyle;rounded=0;html=1;jettySize=auto;orthogonalLoop=1;fontSize=11;endArrow=block;endFill=0;endSize=8;strokeWidth=1;shadow=0;labelBackgroundColor=none;entryX=0.429;entryY=-0.003;entryDx=0;entryDy=0;entryPerimeter=0;exitX=1;exitY=0.5;exitDx=0;exitDy=0;" edge="1" parent="WIyWlLk6GJQsqaUBKTNV-1" source="kOnfNO-TKj69ax_tA5gU-285" target="kOnfNO-TKj69ax_tA5gU-247">
          <mxGeometry x="-0.4113" y="10" relative="1" as="geometry">
            <mxPoint as="offset" />
            <mxPoint x="1870" y="640" as="sourcePoint" />
            <mxPoint x="2090" y="640" as="targetPoint" />
          </mxGeometry>
        </mxCell>
        <mxCell id="kOnfNO-TKj69ax_tA5gU-289" value="" style="edgeStyle=orthogonalEdgeStyle;rounded=0;html=1;jettySize=auto;orthogonalLoop=1;fontSize=11;endArrow=block;endFill=0;endSize=8;strokeWidth=1;shadow=0;labelBackgroundColor=none;entryX=0.25;entryY=0;entryDx=0;entryDy=0;exitX=1;exitY=0.5;exitDx=0;exitDy=0;" edge="1" parent="WIyWlLk6GJQsqaUBKTNV-1" source="kOnfNO-TKj69ax_tA5gU-247" target="kOnfNO-TKj69ax_tA5gU-195">
          <mxGeometry y="10" relative="1" as="geometry">
            <mxPoint as="offset" />
            <mxPoint x="1650" y="535" as="sourcePoint" />
            <mxPoint x="2405" y="780" as="targetPoint" />
          </mxGeometry>
        </mxCell>
        <mxCell id="kOnfNO-TKj69ax_tA5gU-290" value="no" style="edgeStyle=orthogonalEdgeStyle;rounded=0;html=1;jettySize=auto;orthogonalLoop=1;fontSize=11;endArrow=block;endFill=0;endSize=8;strokeWidth=1;shadow=0;labelBackgroundColor=none;exitX=0.5;exitY=1;exitDx=0;exitDy=0;" edge="1" parent="WIyWlLk6GJQsqaUBKTNV-1" source="kOnfNO-TKj69ax_tA5gU-242" target="kOnfNO-TKj69ax_tA5gU-83">
          <mxGeometry x="-0.9678" relative="1" as="geometry">
            <mxPoint as="offset" />
            <mxPoint x="547" y="520" as="sourcePoint" />
            <mxPoint x="2170" y="741" as="targetPoint" />
            <Array as="points">
              <mxPoint x="546" y="710" />
              <mxPoint x="2140" y="710" />
            </Array>
          </mxGeometry>
        </mxCell>
        <mxCell id="kOnfNO-TKj69ax_tA5gU-291" value="" style="endArrow=none;html=1;rounded=0;entryX=0.5;entryY=1;entryDx=0;entryDy=0;" edge="1" parent="WIyWlLk6GJQsqaUBKTNV-1" target="kOnfNO-TKj69ax_tA5gU-243">
          <mxGeometry width="50" height="50" relative="1" as="geometry">
            <mxPoint x="697" y="710" as="sourcePoint" />
            <mxPoint x="885" y="683" as="targetPoint" />
          </mxGeometry>
        </mxCell>
        <mxCell id="kOnfNO-TKj69ax_tA5gU-292" value="yes" style="edgeLabel;html=1;align=center;verticalAlign=middle;resizable=0;points=[];" vertex="1" connectable="0" parent="kOnfNO-TKj69ax_tA5gU-291">
          <mxGeometry x="0.3407" y="1" relative="1" as="geometry">
            <mxPoint as="offset" />
          </mxGeometry>
        </mxCell>
        <mxCell id="kOnfNO-TKj69ax_tA5gU-293" value="" style="endArrow=none;html=1;rounded=0;entryX=0.5;entryY=1;entryDx=0;entryDy=0;" edge="1" parent="WIyWlLk6GJQsqaUBKTNV-1" target="kOnfNO-TKj69ax_tA5gU-248">
          <mxGeometry width="50" height="50" relative="1" as="geometry">
            <mxPoint x="1245" y="710" as="sourcePoint" />
            <mxPoint x="1440" y="687" as="targetPoint" />
          </mxGeometry>
        </mxCell>
        <mxCell id="kOnfNO-TKj69ax_tA5gU-294" value="yes" style="edgeLabel;html=1;align=center;verticalAlign=middle;resizable=0;points=[];" vertex="1" connectable="0" parent="kOnfNO-TKj69ax_tA5gU-293">
          <mxGeometry x="0.3407" y="1" relative="1" as="geometry">
            <mxPoint x="1" as="offset" />
          </mxGeometry>
        </mxCell>
        <mxCell id="kOnfNO-TKj69ax_tA5gU-295" value="" style="endArrow=none;html=1;rounded=0;entryX=0.5;entryY=1;entryDx=0;entryDy=0;" edge="1" parent="WIyWlLk6GJQsqaUBKTNV-1" target="kOnfNO-TKj69ax_tA5gU-276">
          <mxGeometry width="50" height="50" relative="1" as="geometry">
            <mxPoint x="1685" y="710" as="sourcePoint" />
            <mxPoint x="1440" y="687" as="targetPoint" />
          </mxGeometry>
        </mxCell>
        <mxCell id="kOnfNO-TKj69ax_tA5gU-296" value="yes" style="edgeLabel;html=1;align=center;verticalAlign=middle;resizable=0;points=[];" vertex="1" connectable="0" parent="kOnfNO-TKj69ax_tA5gU-295">
          <mxGeometry x="0.3407" y="1" relative="1" as="geometry">
            <mxPoint x="1" as="offset" />
          </mxGeometry>
        </mxCell>
        <mxCell id="kOnfNO-TKj69ax_tA5gU-298" value="" style="endArrow=none;html=1;rounded=0;entryX=0.5;entryY=1;entryDx=0;entryDy=0;" edge="1" parent="WIyWlLk6GJQsqaUBKTNV-1" target="kOnfNO-TKj69ax_tA5gU-285">
          <mxGeometry width="50" height="50" relative="1" as="geometry">
            <mxPoint x="1984" y="710" as="sourcePoint" />
            <mxPoint x="1695" y="703" as="targetPoint" />
          </mxGeometry>
        </mxCell>
        <mxCell id="kOnfNO-TKj69ax_tA5gU-299" value="yes" style="edgeLabel;html=1;align=center;verticalAlign=middle;resizable=0;points=[];" vertex="1" connectable="0" parent="kOnfNO-TKj69ax_tA5gU-298">
          <mxGeometry x="0.3407" y="1" relative="1" as="geometry">
            <mxPoint x="1" as="offset" />
          </mxGeometry>
        </mxCell>
        <mxCell id="kOnfNO-TKj69ax_tA5gU-300" value="" style="edgeStyle=orthogonalEdgeStyle;rounded=0;html=1;jettySize=auto;orthogonalLoop=1;fontSize=11;endArrow=block;endFill=0;endSize=8;strokeWidth=1;shadow=0;labelBackgroundColor=none;entryX=0;entryY=0.5;entryDx=0;entryDy=0;" edge="1" parent="WIyWlLk6GJQsqaUBKTNV-1" target="kOnfNO-TKj69ax_tA5gU-240">
          <mxGeometry y="10" relative="1" as="geometry">
            <mxPoint as="offset" />
            <mxPoint x="140" y="658" as="sourcePoint" />
            <mxPoint x="210" y="505" as="targetPoint" />
            <Array as="points">
              <mxPoint x="180" y="658" />
            </Array>
          </mxGeometry>
        </mxCell>
        <mxCell id="kOnfNO-TKj69ax_tA5gU-302" value="" style="edgeStyle=orthogonalEdgeStyle;rounded=0;html=1;jettySize=auto;orthogonalLoop=1;fontSize=11;endArrow=block;endFill=0;endSize=8;strokeWidth=1;shadow=0;labelBackgroundColor=none;exitX=1;exitY=0.5;exitDx=0;exitDy=0;" edge="1" parent="WIyWlLk6GJQsqaUBKTNV-1" source="kOnfNO-TKj69ax_tA5gU-68" target="kOnfNO-TKj69ax_tA5gU-123">
          <mxGeometry relative="1" as="geometry">
            <mxPoint x="301" y="668" as="sourcePoint" />
            <mxPoint x="350" y="668" as="targetPoint" />
          </mxGeometry>
        </mxCell>
        <mxCell id="kOnfNO-TKj69ax_tA5gU-303" value="" style="edgeStyle=orthogonalEdgeStyle;rounded=0;html=1;jettySize=auto;orthogonalLoop=1;fontSize=11;endArrow=block;endFill=0;endSize=8;strokeWidth=1;shadow=0;labelBackgroundColor=none;exitX=1;exitY=0.5;exitDx=0;exitDy=0;" edge="1" parent="WIyWlLk6GJQsqaUBKTNV-1" source="kOnfNO-TKj69ax_tA5gU-123" target="kOnfNO-TKj69ax_tA5gU-124">
          <mxGeometry relative="1" as="geometry">
            <mxPoint x="301" y="668" as="sourcePoint" />
            <mxPoint x="350" y="668" as="targetPoint" />
          </mxGeometry>
        </mxCell>
        <mxCell id="kOnfNO-TKj69ax_tA5gU-304" value="" style="edgeStyle=orthogonalEdgeStyle;rounded=0;html=1;jettySize=auto;orthogonalLoop=1;fontSize=11;endArrow=block;endFill=0;endSize=8;strokeWidth=1;shadow=0;labelBackgroundColor=none;exitX=1;exitY=0.5;exitDx=0;exitDy=0;entryX=0;entryY=0.25;entryDx=0;entryDy=0;" edge="1" parent="WIyWlLk6GJQsqaUBKTNV-1" source="kOnfNO-TKj69ax_tA5gU-124" target="kOnfNO-TKj69ax_tA5gU-195">
          <mxGeometry relative="1" as="geometry">
            <mxPoint x="460" y="765" as="sourcePoint" />
            <mxPoint x="830" y="830" as="targetPoint" />
          </mxGeometry>
        </mxCell>
        <mxCell id="kOnfNO-TKj69ax_tA5gU-305" value="" style="edgeStyle=orthogonalEdgeStyle;rounded=0;html=1;jettySize=auto;orthogonalLoop=1;fontSize=11;endArrow=block;endFill=0;endSize=8;strokeWidth=1;shadow=0;labelBackgroundColor=none;exitX=1;exitY=0.5;exitDx=0;exitDy=0;" edge="1" parent="WIyWlLk6GJQsqaUBKTNV-1" source="kOnfNO-TKj69ax_tA5gU-70" target="kOnfNO-TKj69ax_tA5gU-126">
          <mxGeometry relative="1" as="geometry">
            <mxPoint x="310" y="765" as="sourcePoint" />
            <mxPoint x="340" y="765" as="targetPoint" />
          </mxGeometry>
        </mxCell>
        <mxCell id="kOnfNO-TKj69ax_tA5gU-306" value="indeterminate&lt;div&gt;representation&lt;/div&gt;" style="rhombus;whiteSpace=wrap;html=1;shadow=0;fontFamily=Helvetica;fontSize=12;align=center;strokeWidth=1;spacing=6;spacingTop=-4;" vertex="1" parent="WIyWlLk6GJQsqaUBKTNV-1">
          <mxGeometry x="480" y="835" width="130" height="60" as="geometry" />
        </mxCell>
        <mxCell id="kOnfNO-TKj69ax_tA5gU-307" value="" style="edgeStyle=orthogonalEdgeStyle;rounded=0;html=1;jettySize=auto;orthogonalLoop=1;fontSize=11;endArrow=block;endFill=0;endSize=8;strokeWidth=1;shadow=0;labelBackgroundColor=none;exitX=1;exitY=0.5;exitDx=0;exitDy=0;" edge="1" parent="WIyWlLk6GJQsqaUBKTNV-1" source="kOnfNO-TKj69ax_tA5gU-126" target="kOnfNO-TKj69ax_tA5gU-306">
          <mxGeometry relative="1" as="geometry">
            <mxPoint x="460" y="765" as="sourcePoint" />
            <mxPoint x="490" y="765" as="targetPoint" />
          </mxGeometry>
        </mxCell>
        <mxCell id="kOnfNO-TKj69ax_tA5gU-308" value="yes" style="edgeStyle=orthogonalEdgeStyle;rounded=0;html=1;jettySize=auto;orthogonalLoop=1;fontSize=11;endArrow=block;endFill=0;endSize=8;strokeWidth=1;shadow=0;labelBackgroundColor=none;exitX=0.5;exitY=0;exitDx=0;exitDy=0;" edge="1" parent="WIyWlLk6GJQsqaUBKTNV-1" source="kOnfNO-TKj69ax_tA5gU-306" target="kOnfNO-TKj69ax_tA5gU-83">
          <mxGeometry x="-0.9639" relative="1" as="geometry">
            <mxPoint as="offset" />
            <mxPoint x="556" y="683" as="sourcePoint" />
            <mxPoint x="2140" y="790" as="targetPoint" />
            <Array as="points">
              <mxPoint x="545" y="820" />
              <mxPoint x="2140" y="820" />
            </Array>
          </mxGeometry>
        </mxCell>
        <mxCell id="kOnfNO-TKj69ax_tA5gU-309" value="no" style="edgeStyle=orthogonalEdgeStyle;rounded=0;html=1;jettySize=auto;orthogonalLoop=1;fontSize=11;endArrow=block;endFill=0;endSize=8;strokeWidth=1;shadow=0;labelBackgroundColor=none;exitX=1;exitY=0.5;exitDx=0;exitDy=0;" edge="1" parent="WIyWlLk6GJQsqaUBKTNV-1" source="kOnfNO-TKj69ax_tA5gU-306" target="kOnfNO-TKj69ax_tA5gU-127">
          <mxGeometry relative="1" as="geometry">
            <mxPoint x="460" y="875" as="sourcePoint" />
            <mxPoint x="490" y="875" as="targetPoint" />
          </mxGeometry>
        </mxCell>
        <mxCell id="kOnfNO-TKj69ax_tA5gU-311" value="yes" style="edgeStyle=orthogonalEdgeStyle;rounded=0;html=1;jettySize=auto;orthogonalLoop=1;fontSize=11;endArrow=block;endFill=0;endSize=8;strokeWidth=1;shadow=0;labelBackgroundColor=none;exitX=1;exitY=0.5;exitDx=0;exitDy=0;" edge="1" parent="WIyWlLk6GJQsqaUBKTNV-1" source="kOnfNO-TKj69ax_tA5gU-127" target="kOnfNO-TKj69ax_tA5gU-128">
          <mxGeometry x="-0.3497" y="5" relative="1" as="geometry">
            <mxPoint as="offset" />
            <mxPoint x="620" y="875" as="sourcePoint" />
            <mxPoint x="657" y="875" as="targetPoint" />
          </mxGeometry>
        </mxCell>
        <mxCell id="kOnfNO-TKj69ax_tA5gU-312" value="no" style="edgeStyle=orthogonalEdgeStyle;rounded=0;html=1;jettySize=auto;orthogonalLoop=1;fontSize=11;endArrow=block;endFill=0;endSize=8;strokeWidth=1;shadow=0;labelBackgroundColor=none;exitX=1;exitY=0.5;exitDx=0;exitDy=0;" edge="1" parent="WIyWlLk6GJQsqaUBKTNV-1" source="kOnfNO-TKj69ax_tA5gU-128" target="kOnfNO-TKj69ax_tA5gU-131">
          <mxGeometry x="-0.3497" y="5" relative="1" as="geometry">
            <mxPoint as="offset" />
            <mxPoint x="757" y="875" as="sourcePoint" />
            <mxPoint x="798" y="875" as="targetPoint" />
          </mxGeometry>
        </mxCell>
        <mxCell id="kOnfNO-TKj69ax_tA5gU-313" value="yes" style="edgeStyle=orthogonalEdgeStyle;rounded=0;html=1;jettySize=auto;orthogonalLoop=1;fontSize=11;endArrow=block;endFill=0;endSize=8;strokeWidth=1;shadow=0;labelBackgroundColor=none;exitX=1;exitY=0.5;exitDx=0;exitDy=0;" edge="1" parent="WIyWlLk6GJQsqaUBKTNV-1" source="kOnfNO-TKj69ax_tA5gU-131" target="kOnfNO-TKj69ax_tA5gU-132">
          <mxGeometry x="-0.3478" y="5" relative="1" as="geometry">
            <mxPoint as="offset" />
            <mxPoint x="897" y="875" as="sourcePoint" />
            <mxPoint x="940" y="875" as="targetPoint" />
          </mxGeometry>
        </mxCell>
        <mxCell id="kOnfNO-TKj69ax_tA5gU-314" value="no" style="edgeStyle=orthogonalEdgeStyle;rounded=0;html=1;jettySize=auto;orthogonalLoop=1;fontSize=11;endArrow=block;endFill=0;endSize=8;strokeWidth=1;shadow=0;labelBackgroundColor=none;exitX=1;exitY=0.5;exitDx=0;exitDy=0;" edge="1" parent="WIyWlLk6GJQsqaUBKTNV-1" source="kOnfNO-TKj69ax_tA5gU-132" target="kOnfNO-TKj69ax_tA5gU-133">
          <mxGeometry x="-0.3478" y="5" relative="1" as="geometry">
            <mxPoint as="offset" />
            <mxPoint x="1040" y="875" as="sourcePoint" />
            <mxPoint x="1080" y="875" as="targetPoint" />
          </mxGeometry>
        </mxCell>
        <mxCell id="kOnfNO-TKj69ax_tA5gU-315" value="no" style="edgeStyle=orthogonalEdgeStyle;rounded=0;html=1;jettySize=auto;orthogonalLoop=1;fontSize=11;endArrow=block;endFill=0;endSize=8;strokeWidth=1;shadow=0;labelBackgroundColor=none;exitX=1;exitY=0.5;exitDx=0;exitDy=0;" edge="1" parent="WIyWlLk6GJQsqaUBKTNV-1" source="kOnfNO-TKj69ax_tA5gU-133" target="kOnfNO-TKj69ax_tA5gU-134">
          <mxGeometry x="-0.3478" y="5" relative="1" as="geometry">
            <mxPoint as="offset" />
            <mxPoint x="1220" y="875" as="sourcePoint" />
            <mxPoint x="1270" y="875" as="targetPoint" />
          </mxGeometry>
        </mxCell>
        <mxCell id="kOnfNO-TKj69ax_tA5gU-316" value="yes" style="edgeStyle=orthogonalEdgeStyle;rounded=0;html=1;jettySize=auto;orthogonalLoop=1;fontSize=11;endArrow=block;endFill=0;endSize=8;strokeWidth=1;shadow=0;labelBackgroundColor=none;exitX=1;exitY=0.5;exitDx=0;exitDy=0;" edge="1" parent="WIyWlLk6GJQsqaUBKTNV-1" source="kOnfNO-TKj69ax_tA5gU-134" target="kOnfNO-TKj69ax_tA5gU-135">
          <mxGeometry x="-0.3478" y="5" relative="1" as="geometry">
            <mxPoint as="offset" />
            <mxPoint x="1370" y="875" as="sourcePoint" />
            <mxPoint x="1410" y="875" as="targetPoint" />
          </mxGeometry>
        </mxCell>
        <mxCell id="kOnfNO-TKj69ax_tA5gU-317" value="yes" style="edgeStyle=orthogonalEdgeStyle;rounded=0;html=1;jettySize=auto;orthogonalLoop=1;fontSize=11;endArrow=block;endFill=0;endSize=8;strokeWidth=1;shadow=0;labelBackgroundColor=none;exitX=1;exitY=0.5;exitDx=0;exitDy=0;" edge="1" parent="WIyWlLk6GJQsqaUBKTNV-1" source="kOnfNO-TKj69ax_tA5gU-135" target="kOnfNO-TKj69ax_tA5gU-137">
          <mxGeometry x="-0.3478" y="5" relative="1" as="geometry">
            <mxPoint as="offset" />
            <mxPoint x="1510" y="875" as="sourcePoint" />
            <mxPoint x="1550" y="875" as="targetPoint" />
          </mxGeometry>
        </mxCell>
        <mxCell id="kOnfNO-TKj69ax_tA5gU-318" value="yes" style="edgeStyle=orthogonalEdgeStyle;rounded=0;html=1;jettySize=auto;orthogonalLoop=1;fontSize=11;endArrow=block;endFill=0;endSize=8;strokeWidth=1;shadow=0;labelBackgroundColor=none;exitX=1;exitY=0.5;exitDx=0;exitDy=0;" edge="1" parent="WIyWlLk6GJQsqaUBKTNV-1" source="kOnfNO-TKj69ax_tA5gU-137" target="kOnfNO-TKj69ax_tA5gU-138">
          <mxGeometry x="-0.3478" y="5" relative="1" as="geometry">
            <mxPoint as="offset" />
            <mxPoint x="1650" y="875" as="sourcePoint" />
            <mxPoint x="1690" y="875" as="targetPoint" />
          </mxGeometry>
        </mxCell>
        <mxCell id="kOnfNO-TKj69ax_tA5gU-319" value="" style="edgeStyle=orthogonalEdgeStyle;rounded=0;html=1;jettySize=auto;orthogonalLoop=1;fontSize=11;endArrow=block;endFill=0;endSize=8;strokeWidth=1;shadow=0;labelBackgroundColor=none;exitX=1;exitY=0.5;exitDx=0;exitDy=0;" edge="1" parent="WIyWlLk6GJQsqaUBKTNV-1" source="kOnfNO-TKj69ax_tA5gU-138" target="kOnfNO-TKj69ax_tA5gU-139">
          <mxGeometry x="-0.3478" y="5" relative="1" as="geometry">
            <mxPoint as="offset" />
            <mxPoint x="1830" y="875" as="sourcePoint" />
            <mxPoint x="1870" y="875" as="targetPoint" />
          </mxGeometry>
        </mxCell>
        <mxCell id="kOnfNO-TKj69ax_tA5gU-320" value="" style="edgeStyle=orthogonalEdgeStyle;rounded=0;html=1;jettySize=auto;orthogonalLoop=1;fontSize=11;endArrow=block;endFill=0;endSize=8;strokeWidth=1;shadow=0;labelBackgroundColor=none;exitX=1;exitY=0.5;exitDx=0;exitDy=0;entryX=0.25;entryY=1;entryDx=0;entryDy=0;" edge="1" parent="WIyWlLk6GJQsqaUBKTNV-1" source="kOnfNO-TKj69ax_tA5gU-139" target="kOnfNO-TKj69ax_tA5gU-195">
          <mxGeometry x="-0.3478" y="5" relative="1" as="geometry">
            <mxPoint as="offset" />
            <mxPoint x="1940" y="875" as="sourcePoint" />
            <mxPoint x="1980" y="875" as="targetPoint" />
          </mxGeometry>
        </mxCell>
        <mxCell id="kOnfNO-TKj69ax_tA5gU-321" value="" style="endArrow=none;html=1;rounded=0;exitX=0.5;exitY=0;exitDx=0;exitDy=0;" edge="1" parent="WIyWlLk6GJQsqaUBKTNV-1">
          <mxGeometry width="50" height="50" relative="1" as="geometry">
            <mxPoint x="696.62" y="850.0000000000001" as="sourcePoint" />
            <mxPoint x="696.87" y="820" as="targetPoint" />
          </mxGeometry>
        </mxCell>
        <mxCell id="kOnfNO-TKj69ax_tA5gU-322" value="no" style="edgeLabel;html=1;align=center;verticalAlign=middle;resizable=0;points=[];" vertex="1" connectable="0" parent="kOnfNO-TKj69ax_tA5gU-321">
          <mxGeometry x="0.3407" y="1" relative="1" as="geometry">
            <mxPoint as="offset" />
          </mxGeometry>
        </mxCell>
        <mxCell id="kOnfNO-TKj69ax_tA5gU-323" value="" style="endArrow=none;html=1;rounded=0;exitX=0.5;exitY=0;exitDx=0;exitDy=0;" edge="1" parent="WIyWlLk6GJQsqaUBKTNV-1" source="kOnfNO-TKj69ax_tA5gU-128">
          <mxGeometry width="50" height="50" relative="1" as="geometry">
            <mxPoint x="706.62" y="860.0000000000001" as="sourcePoint" />
            <mxPoint x="841.344537815126" y="820" as="targetPoint" />
          </mxGeometry>
        </mxCell>
        <mxCell id="kOnfNO-TKj69ax_tA5gU-324" value="yes" style="edgeLabel;html=1;align=center;verticalAlign=middle;resizable=0;points=[];" vertex="1" connectable="0" parent="kOnfNO-TKj69ax_tA5gU-323">
          <mxGeometry x="0.3407" y="1" relative="1" as="geometry">
            <mxPoint as="offset" />
          </mxGeometry>
        </mxCell>
        <mxCell id="kOnfNO-TKj69ax_tA5gU-327" value="" style="endArrow=none;html=1;rounded=0;exitX=0.5;exitY=0;exitDx=0;exitDy=0;" edge="1" parent="WIyWlLk6GJQsqaUBKTNV-1" source="kOnfNO-TKj69ax_tA5gU-131">
          <mxGeometry width="50" height="50" relative="1" as="geometry">
            <mxPoint x="854" y="860" as="sourcePoint" />
            <mxPoint x="980" y="820" as="targetPoint" />
          </mxGeometry>
        </mxCell>
        <mxCell id="kOnfNO-TKj69ax_tA5gU-328" value="no" style="edgeLabel;html=1;align=center;verticalAlign=middle;resizable=0;points=[];" vertex="1" connectable="0" parent="kOnfNO-TKj69ax_tA5gU-327">
          <mxGeometry x="0.3407" y="1" relative="1" as="geometry">
            <mxPoint as="offset" />
          </mxGeometry>
        </mxCell>
        <mxCell id="kOnfNO-TKj69ax_tA5gU-330" value="" style="endArrow=none;html=1;rounded=0;exitX=0.5;exitY=0;exitDx=0;exitDy=0;" edge="1" parent="WIyWlLk6GJQsqaUBKTNV-1" source="kOnfNO-TKj69ax_tA5gU-132">
          <mxGeometry width="50" height="50" relative="1" as="geometry">
            <mxPoint x="990" y="860" as="sourcePoint" />
            <mxPoint x="1140" y="820" as="targetPoint" />
          </mxGeometry>
        </mxCell>
        <mxCell id="kOnfNO-TKj69ax_tA5gU-331" value="yes" style="edgeLabel;html=1;align=center;verticalAlign=middle;resizable=0;points=[];" vertex="1" connectable="0" parent="kOnfNO-TKj69ax_tA5gU-330">
          <mxGeometry x="0.3407" y="1" relative="1" as="geometry">
            <mxPoint x="1" y="4" as="offset" />
          </mxGeometry>
        </mxCell>
        <mxCell id="kOnfNO-TKj69ax_tA5gU-332" value="" style="endArrow=none;html=1;rounded=0;" edge="1" parent="WIyWlLk6GJQsqaUBKTNV-1" source="kOnfNO-TKj69ax_tA5gU-133">
          <mxGeometry width="50" height="50" relative="1" as="geometry">
            <mxPoint x="1150" y="850" as="sourcePoint" />
            <mxPoint x="1310" y="820" as="targetPoint" />
          </mxGeometry>
        </mxCell>
        <mxCell id="kOnfNO-TKj69ax_tA5gU-333" value="yes" style="edgeLabel;html=1;align=center;verticalAlign=middle;resizable=0;points=[];" vertex="1" connectable="0" parent="kOnfNO-TKj69ax_tA5gU-332">
          <mxGeometry x="0.3407" y="1" relative="1" as="geometry">
            <mxPoint x="1" y="4" as="offset" />
          </mxGeometry>
        </mxCell>
        <mxCell id="kOnfNO-TKj69ax_tA5gU-334" value="" style="endArrow=none;html=1;rounded=0;exitX=0.5;exitY=0;exitDx=0;exitDy=0;" edge="1" parent="WIyWlLk6GJQsqaUBKTNV-1" source="kOnfNO-TKj69ax_tA5gU-134">
          <mxGeometry width="50" height="50" relative="1" as="geometry">
            <mxPoint x="1320" y="860" as="sourcePoint" />
            <mxPoint x="1450" y="820" as="targetPoint" />
          </mxGeometry>
        </mxCell>
        <mxCell id="kOnfNO-TKj69ax_tA5gU-335" value="no" style="edgeLabel;html=1;align=center;verticalAlign=middle;resizable=0;points=[];" vertex="1" connectable="0" parent="kOnfNO-TKj69ax_tA5gU-334">
          <mxGeometry x="0.3407" y="1" relative="1" as="geometry">
            <mxPoint x="1" y="4" as="offset" />
          </mxGeometry>
        </mxCell>
        <mxCell id="kOnfNO-TKj69ax_tA5gU-336" value="" style="endArrow=none;html=1;rounded=0;exitX=0.5;exitY=0;exitDx=0;exitDy=0;" edge="1" parent="WIyWlLk6GJQsqaUBKTNV-1" source="kOnfNO-TKj69ax_tA5gU-135">
          <mxGeometry width="50" height="50" relative="1" as="geometry">
            <mxPoint x="1460" y="860" as="sourcePoint" />
            <mxPoint x="1590" y="820" as="targetPoint" />
          </mxGeometry>
        </mxCell>
        <mxCell id="kOnfNO-TKj69ax_tA5gU-337" value="no" style="edgeLabel;html=1;align=center;verticalAlign=middle;resizable=0;points=[];" vertex="1" connectable="0" parent="kOnfNO-TKj69ax_tA5gU-336">
          <mxGeometry x="0.3407" y="1" relative="1" as="geometry">
            <mxPoint x="1" y="4" as="offset" />
          </mxGeometry>
        </mxCell>
        <mxCell id="kOnfNO-TKj69ax_tA5gU-338" value="" style="endArrow=none;html=1;rounded=0;exitX=0.5;exitY=0;exitDx=0;exitDy=0;" edge="1" parent="WIyWlLk6GJQsqaUBKTNV-1" source="kOnfNO-TKj69ax_tA5gU-137">
          <mxGeometry width="50" height="50" relative="1" as="geometry">
            <mxPoint x="1600" y="860" as="sourcePoint" />
            <mxPoint x="1750" y="820" as="targetPoint" />
          </mxGeometry>
        </mxCell>
        <mxCell id="kOnfNO-TKj69ax_tA5gU-339" value="no" style="edgeLabel;html=1;align=center;verticalAlign=middle;resizable=0;points=[];" vertex="1" connectable="0" parent="kOnfNO-TKj69ax_tA5gU-338">
          <mxGeometry x="0.3407" y="1" relative="1" as="geometry">
            <mxPoint x="1" y="4" as="offset" />
          </mxGeometry>
        </mxCell>
        <mxCell id="kOnfNO-TKj69ax_tA5gU-343" value="" style="edgeStyle=orthogonalEdgeStyle;rounded=0;html=1;jettySize=auto;orthogonalLoop=1;fontSize=11;endArrow=block;endFill=0;endSize=8;strokeWidth=1;shadow=0;labelBackgroundColor=none;exitX=1;exitY=0.5;exitDx=0;exitDy=0;" edge="1" parent="WIyWlLk6GJQsqaUBKTNV-1" source="kOnfNO-TKj69ax_tA5gU-74" target="kOnfNO-TKj69ax_tA5gU-140">
          <mxGeometry relative="1" as="geometry">
            <mxPoint x="310" y="875" as="sourcePoint" />
            <mxPoint x="340" y="875" as="targetPoint" />
          </mxGeometry>
        </mxCell>
        <mxCell id="kOnfNO-TKj69ax_tA5gU-344" value="yes" style="edgeStyle=orthogonalEdgeStyle;rounded=0;html=1;jettySize=auto;orthogonalLoop=1;fontSize=11;endArrow=block;endFill=0;endSize=8;strokeWidth=1;shadow=0;labelBackgroundColor=none;exitX=1;exitY=0.5;exitDx=0;exitDy=0;" edge="1" parent="WIyWlLk6GJQsqaUBKTNV-1" source="kOnfNO-TKj69ax_tA5gU-140" target="kOnfNO-TKj69ax_tA5gU-141">
          <mxGeometry x="-0.6" y="5" relative="1" as="geometry">
            <mxPoint as="offset" />
            <mxPoint x="310" y="945" as="sourcePoint" />
            <mxPoint x="340" y="945" as="targetPoint" />
          </mxGeometry>
        </mxCell>
        <mxCell id="kOnfNO-TKj69ax_tA5gU-345" value="no" style="edgeStyle=orthogonalEdgeStyle;rounded=0;html=1;jettySize=auto;orthogonalLoop=1;fontSize=11;endArrow=block;endFill=0;endSize=8;strokeWidth=1;shadow=0;labelBackgroundColor=none;exitX=0.5;exitY=0;exitDx=0;exitDy=0;" edge="1" parent="WIyWlLk6GJQsqaUBKTNV-1" source="kOnfNO-TKj69ax_tA5gU-140" target="kOnfNO-TKj69ax_tA5gU-83">
          <mxGeometry x="-0.9639" relative="1" as="geometry">
            <mxPoint as="offset" />
            <mxPoint x="555" y="845" as="sourcePoint" />
            <mxPoint x="2150" y="780" as="targetPoint" />
            <Array as="points">
              <mxPoint x="380" y="910" />
              <mxPoint x="2150" y="910" />
            </Array>
          </mxGeometry>
        </mxCell>
        <mxCell id="kOnfNO-TKj69ax_tA5gU-346" value="" style="edgeStyle=orthogonalEdgeStyle;rounded=0;html=1;jettySize=auto;orthogonalLoop=1;fontSize=11;endArrow=block;endFill=0;endSize=8;strokeWidth=1;shadow=0;labelBackgroundColor=none;entryX=0.374;entryY=1;entryDx=0;entryDy=0;entryPerimeter=0;" edge="1" parent="WIyWlLk6GJQsqaUBKTNV-1" source="kOnfNO-TKj69ax_tA5gU-141" target="kOnfNO-TKj69ax_tA5gU-195">
          <mxGeometry x="-0.3478" y="5" relative="1" as="geometry">
            <mxPoint as="offset" />
            <mxPoint x="2097" y="875" as="sourcePoint" />
            <mxPoint x="2390" y="850" as="targetPoint" />
          </mxGeometry>
        </mxCell>
        <mxCell id="kOnfNO-TKj69ax_tA5gU-347" value="pop operand stack" style="rounded=1;whiteSpace=wrap;html=1;fontSize=12;glass=0;strokeWidth=1;shadow=0;" vertex="1" parent="WIyWlLk6GJQsqaUBKTNV-1">
          <mxGeometry x="330" y="1000" width="120" height="30" as="geometry" />
        </mxCell>
        <mxCell id="kOnfNO-TKj69ax_tA5gU-348" value="is pointer" style="rhombus;whiteSpace=wrap;html=1;shadow=0;fontFamily=Helvetica;fontSize=12;align=center;strokeWidth=1;spacing=6;spacingTop=-4;" vertex="1" parent="WIyWlLk6GJQsqaUBKTNV-1">
          <mxGeometry x="646.75" y="1000" width="100" height="30" as="geometry" />
        </mxCell>
        <mxCell id="kOnfNO-TKj69ax_tA5gU-349" value="is null" style="rhombus;whiteSpace=wrap;html=1;shadow=0;fontFamily=Helvetica;fontSize=12;align=center;strokeWidth=1;spacing=6;spacingTop=-4;" vertex="1" parent="WIyWlLk6GJQsqaUBKTNV-1">
          <mxGeometry x="793.5" y="1000" width="100" height="30" as="geometry" />
        </mxCell>
        <mxCell id="kOnfNO-TKj69ax_tA5gU-350" value="" style="edgeStyle=orthogonalEdgeStyle;rounded=0;html=1;jettySize=auto;orthogonalLoop=1;fontSize=11;endArrow=block;endFill=0;endSize=8;strokeWidth=1;shadow=0;labelBackgroundColor=none;" edge="1" target="kOnfNO-TKj69ax_tA5gU-347" parent="WIyWlLk6GJQsqaUBKTNV-1" source="kOnfNO-TKj69ax_tA5gU-72">
          <mxGeometry relative="1" as="geometry">
            <mxPoint x="300" y="1015" as="sourcePoint" />
            <mxPoint x="340" y="915" as="targetPoint" />
          </mxGeometry>
        </mxCell>
        <mxCell id="kOnfNO-TKj69ax_tA5gU-351" value="indeterminate&lt;div&gt;representation&lt;/div&gt;" style="rhombus;whiteSpace=wrap;html=1;shadow=0;fontFamily=Helvetica;fontSize=12;align=center;strokeWidth=1;spacing=6;spacingTop=-4;" vertex="1" parent="WIyWlLk6GJQsqaUBKTNV-1">
          <mxGeometry x="480" y="985" width="130" height="60" as="geometry" />
        </mxCell>
        <mxCell id="kOnfNO-TKj69ax_tA5gU-352" value="" style="edgeStyle=orthogonalEdgeStyle;rounded=0;html=1;jettySize=auto;orthogonalLoop=1;fontSize=11;endArrow=block;endFill=0;endSize=8;strokeWidth=1;shadow=0;labelBackgroundColor=none;exitX=1;exitY=0.5;exitDx=0;exitDy=0;" edge="1" source="kOnfNO-TKj69ax_tA5gU-347" target="kOnfNO-TKj69ax_tA5gU-351" parent="WIyWlLk6GJQsqaUBKTNV-1">
          <mxGeometry relative="1" as="geometry">
            <mxPoint x="460" y="915" as="sourcePoint" />
            <mxPoint x="490" y="915" as="targetPoint" />
          </mxGeometry>
        </mxCell>
        <mxCell id="kOnfNO-TKj69ax_tA5gU-353" value="no" style="edgeStyle=orthogonalEdgeStyle;rounded=0;html=1;jettySize=auto;orthogonalLoop=1;fontSize=11;endArrow=block;endFill=0;endSize=8;strokeWidth=1;shadow=0;labelBackgroundColor=none;exitX=1;exitY=0.5;exitDx=0;exitDy=0;" edge="1" source="kOnfNO-TKj69ax_tA5gU-351" target="kOnfNO-TKj69ax_tA5gU-348" parent="WIyWlLk6GJQsqaUBKTNV-1">
          <mxGeometry relative="1" as="geometry">
            <mxPoint x="460" y="1025" as="sourcePoint" />
            <mxPoint x="490" y="1025" as="targetPoint" />
          </mxGeometry>
        </mxCell>
        <mxCell id="kOnfNO-TKj69ax_tA5gU-354" value="yes" style="edgeStyle=orthogonalEdgeStyle;rounded=0;html=1;jettySize=auto;orthogonalLoop=1;fontSize=11;endArrow=block;endFill=0;endSize=8;strokeWidth=1;shadow=0;labelBackgroundColor=none;exitX=1;exitY=0.5;exitDx=0;exitDy=0;" edge="1" source="kOnfNO-TKj69ax_tA5gU-348" target="kOnfNO-TKj69ax_tA5gU-349" parent="WIyWlLk6GJQsqaUBKTNV-1">
          <mxGeometry x="-0.3497" y="5" relative="1" as="geometry">
            <mxPoint as="offset" />
            <mxPoint x="620" y="1025" as="sourcePoint" />
            <mxPoint x="657" y="1025" as="targetPoint" />
          </mxGeometry>
        </mxCell>
        <mxCell id="kOnfNO-TKj69ax_tA5gU-355" value="" style="endArrow=none;html=1;rounded=0;exitX=0.5;exitY=0;exitDx=0;exitDy=0;" edge="1" parent="WIyWlLk6GJQsqaUBKTNV-1">
          <mxGeometry width="50" height="50" relative="1" as="geometry">
            <mxPoint x="696.62" y="1000.0000000000001" as="sourcePoint" />
            <mxPoint x="696.87" y="970" as="targetPoint" />
          </mxGeometry>
        </mxCell>
        <mxCell id="kOnfNO-TKj69ax_tA5gU-356" value="no" style="edgeLabel;html=1;align=center;verticalAlign=middle;resizable=0;points=[];" vertex="1" connectable="0" parent="kOnfNO-TKj69ax_tA5gU-355">
          <mxGeometry x="0.3407" y="1" relative="1" as="geometry">
            <mxPoint as="offset" />
          </mxGeometry>
        </mxCell>
        <mxCell id="kOnfNO-TKj69ax_tA5gU-357" value="" style="endArrow=none;html=1;rounded=0;exitX=0.5;exitY=0;exitDx=0;exitDy=0;" edge="1" source="kOnfNO-TKj69ax_tA5gU-349" parent="WIyWlLk6GJQsqaUBKTNV-1">
          <mxGeometry width="50" height="50" relative="1" as="geometry">
            <mxPoint x="706.62" y="1010.0000000000001" as="sourcePoint" />
            <mxPoint x="844" y="970" as="targetPoint" />
          </mxGeometry>
        </mxCell>
        <mxCell id="kOnfNO-TKj69ax_tA5gU-358" value="yes" style="edgeLabel;html=1;align=center;verticalAlign=middle;resizable=0;points=[];" vertex="1" connectable="0" parent="kOnfNO-TKj69ax_tA5gU-357">
          <mxGeometry x="0.3407" y="1" relative="1" as="geometry">
            <mxPoint as="offset" />
          </mxGeometry>
        </mxCell>
        <mxCell id="kOnfNO-TKj69ax_tA5gU-359" value="no" style="edgeStyle=orthogonalEdgeStyle;rounded=0;html=1;jettySize=auto;orthogonalLoop=1;fontSize=11;endArrow=block;endFill=0;endSize=8;strokeWidth=1;shadow=0;labelBackgroundColor=none;exitX=1;exitY=0.5;exitDx=0;exitDy=0;" edge="1" parent="WIyWlLk6GJQsqaUBKTNV-1" source="kOnfNO-TKj69ax_tA5gU-349" target="kOnfNO-TKj69ax_tA5gU-146">
          <mxGeometry x="-0.3497" y="5" relative="1" as="geometry">
            <mxPoint as="offset" />
            <mxPoint x="757" y="1025" as="sourcePoint" />
            <mxPoint x="804" y="1025" as="targetPoint" />
          </mxGeometry>
        </mxCell>
        <mxCell id="kOnfNO-TKj69ax_tA5gU-360" value="yes" style="edgeStyle=orthogonalEdgeStyle;rounded=0;html=1;jettySize=auto;orthogonalLoop=1;fontSize=11;endArrow=block;endFill=0;endSize=8;strokeWidth=1;shadow=0;labelBackgroundColor=none;exitX=1;exitY=0.5;exitDx=0;exitDy=0;" edge="1" parent="WIyWlLk6GJQsqaUBKTNV-1" source="kOnfNO-TKj69ax_tA5gU-146" target="kOnfNO-TKj69ax_tA5gU-150">
          <mxGeometry x="-0.3497" y="5" relative="1" as="geometry">
            <mxPoint as="offset" />
            <mxPoint x="757" y="1025" as="sourcePoint" />
            <mxPoint x="804" y="1025" as="targetPoint" />
          </mxGeometry>
        </mxCell>
        <mxCell id="kOnfNO-TKj69ax_tA5gU-361" value="yes" style="edgeStyle=orthogonalEdgeStyle;rounded=0;html=1;jettySize=auto;orthogonalLoop=1;fontSize=11;endArrow=block;endFill=0;endSize=8;strokeWidth=1;shadow=0;labelBackgroundColor=none;exitX=1;exitY=0.5;exitDx=0;exitDy=0;" edge="1" parent="WIyWlLk6GJQsqaUBKTNV-1" source="kOnfNO-TKj69ax_tA5gU-150" target="kOnfNO-TKj69ax_tA5gU-151">
          <mxGeometry x="-0.3497" y="5" relative="1" as="geometry">
            <mxPoint as="offset" />
            <mxPoint x="1080" y="1025" as="sourcePoint" />
            <mxPoint x="1120" y="1025" as="targetPoint" />
          </mxGeometry>
        </mxCell>
        <mxCell id="kOnfNO-TKj69ax_tA5gU-362" value="" style="edgeStyle=orthogonalEdgeStyle;rounded=0;html=1;jettySize=auto;orthogonalLoop=1;fontSize=11;endArrow=block;endFill=0;endSize=8;strokeWidth=1;shadow=0;labelBackgroundColor=none;exitX=1;exitY=0.5;exitDx=0;exitDy=0;" edge="1" parent="WIyWlLk6GJQsqaUBKTNV-1" source="kOnfNO-TKj69ax_tA5gU-151" target="kOnfNO-TKj69ax_tA5gU-152">
          <mxGeometry x="-0.3497" y="5" relative="1" as="geometry">
            <mxPoint as="offset" />
            <mxPoint x="1220" y="1025" as="sourcePoint" />
            <mxPoint x="1260" y="1025" as="targetPoint" />
          </mxGeometry>
        </mxCell>
        <mxCell id="kOnfNO-TKj69ax_tA5gU-363" value="" style="edgeStyle=orthogonalEdgeStyle;rounded=0;html=1;jettySize=auto;orthogonalLoop=1;fontSize=11;endArrow=block;endFill=0;endSize=8;strokeWidth=1;shadow=0;labelBackgroundColor=none;exitX=1;exitY=0.5;exitDx=0;exitDy=0;" edge="1" parent="WIyWlLk6GJQsqaUBKTNV-1" source="kOnfNO-TKj69ax_tA5gU-152" target="kOnfNO-TKj69ax_tA5gU-153">
          <mxGeometry x="-0.3497" y="5" relative="1" as="geometry">
            <mxPoint as="offset" />
            <mxPoint x="1380" y="1025" as="sourcePoint" />
            <mxPoint x="1420" y="1025" as="targetPoint" />
          </mxGeometry>
        </mxCell>
        <mxCell id="kOnfNO-TKj69ax_tA5gU-364" value="" style="edgeStyle=orthogonalEdgeStyle;rounded=0;html=1;jettySize=auto;orthogonalLoop=1;fontSize=11;endArrow=block;endFill=0;endSize=8;strokeWidth=1;shadow=0;labelBackgroundColor=none;exitX=1;exitY=0.5;exitDx=0;exitDy=0;" edge="1" parent="WIyWlLk6GJQsqaUBKTNV-1" source="kOnfNO-TKj69ax_tA5gU-153" target="kOnfNO-TKj69ax_tA5gU-195">
          <mxGeometry x="-0.3497" y="5" relative="1" as="geometry">
            <mxPoint as="offset" />
            <mxPoint x="1540" y="1025" as="sourcePoint" />
            <mxPoint x="1580" y="1025" as="targetPoint" />
          </mxGeometry>
        </mxCell>
        <mxCell id="kOnfNO-TKj69ax_tA5gU-365" value="yes" style="edgeStyle=orthogonalEdgeStyle;rounded=0;html=1;jettySize=auto;orthogonalLoop=1;fontSize=11;endArrow=block;endFill=0;endSize=8;strokeWidth=1;shadow=0;labelBackgroundColor=none;exitX=0.5;exitY=0;exitDx=0;exitDy=0;" edge="1" parent="WIyWlLk6GJQsqaUBKTNV-1" source="kOnfNO-TKj69ax_tA5gU-351" target="kOnfNO-TKj69ax_tA5gU-83">
          <mxGeometry x="-0.9639" relative="1" as="geometry">
            <mxPoint as="offset" />
            <mxPoint x="390" y="930" as="sourcePoint" />
            <mxPoint x="2160" y="780" as="targetPoint" />
            <Array as="points">
              <mxPoint x="545" y="970" />
              <mxPoint x="2160" y="970" />
            </Array>
          </mxGeometry>
        </mxCell>
        <mxCell id="kOnfNO-TKj69ax_tA5gU-366" value="" style="endArrow=none;html=1;rounded=0;exitX=0.5;exitY=0;exitDx=0;exitDy=0;" edge="1" parent="WIyWlLk6GJQsqaUBKTNV-1" source="kOnfNO-TKj69ax_tA5gU-146">
          <mxGeometry width="50" height="50" relative="1" as="geometry">
            <mxPoint x="854" y="1010" as="sourcePoint" />
            <mxPoint x="1000" y="970" as="targetPoint" />
          </mxGeometry>
        </mxCell>
        <mxCell id="kOnfNO-TKj69ax_tA5gU-367" value="no" style="edgeLabel;html=1;align=center;verticalAlign=middle;resizable=0;points=[];" vertex="1" connectable="0" parent="kOnfNO-TKj69ax_tA5gU-366">
          <mxGeometry x="0.3407" y="1" relative="1" as="geometry">
            <mxPoint y="4" as="offset" />
          </mxGeometry>
        </mxCell>
        <mxCell id="kOnfNO-TKj69ax_tA5gU-369" value="" style="endArrow=none;html=1;rounded=0;exitX=0.5;exitY=0;exitDx=0;exitDy=0;" edge="1" parent="WIyWlLk6GJQsqaUBKTNV-1" source="kOnfNO-TKj69ax_tA5gU-150">
          <mxGeometry width="50" height="50" relative="1" as="geometry">
            <mxPoint x="854" y="1010" as="sourcePoint" />
            <mxPoint x="1160" y="970" as="targetPoint" />
          </mxGeometry>
        </mxCell>
        <mxCell id="kOnfNO-TKj69ax_tA5gU-370" value="no" style="edgeLabel;html=1;align=center;verticalAlign=middle;resizable=0;points=[];" vertex="1" connectable="0" parent="kOnfNO-TKj69ax_tA5gU-369">
          <mxGeometry x="0.3407" y="1" relative="1" as="geometry">
            <mxPoint as="offset" />
          </mxGeometry>
        </mxCell>
        <mxCell id="kOnfNO-TKj69ax_tA5gU-371" value="" style="edgeStyle=orthogonalEdgeStyle;rounded=0;html=1;jettySize=auto;orthogonalLoop=1;fontSize=11;endArrow=block;endFill=0;endSize=8;strokeWidth=1;shadow=0;labelBackgroundColor=none;exitX=1;exitY=0.5;exitDx=0;exitDy=0;" edge="1" parent="WIyWlLk6GJQsqaUBKTNV-1" source="kOnfNO-TKj69ax_tA5gU-66" target="kOnfNO-TKj69ax_tA5gU-155">
          <mxGeometry relative="1" as="geometry">
            <mxPoint x="310" y="1025" as="sourcePoint" />
            <mxPoint x="340" y="1025" as="targetPoint" />
          </mxGeometry>
        </mxCell>
        <mxCell id="kOnfNO-TKj69ax_tA5gU-372" value="no" style="edgeStyle=orthogonalEdgeStyle;rounded=0;html=1;jettySize=auto;orthogonalLoop=1;fontSize=11;endArrow=block;endFill=0;endSize=8;strokeWidth=1;shadow=0;labelBackgroundColor=none;exitX=1;exitY=0.5;exitDx=0;exitDy=0;" edge="1" parent="WIyWlLk6GJQsqaUBKTNV-1" source="kOnfNO-TKj69ax_tA5gU-155" target="kOnfNO-TKj69ax_tA5gU-157">
          <mxGeometry x="-0.5556" y="5" relative="1" as="geometry">
            <mxPoint as="offset" />
            <mxPoint x="310" y="1115" as="sourcePoint" />
            <mxPoint x="340" y="1115" as="targetPoint" />
          </mxGeometry>
        </mxCell>
        <mxCell id="kOnfNO-TKj69ax_tA5gU-373" value="" style="edgeStyle=orthogonalEdgeStyle;rounded=0;html=1;jettySize=auto;orthogonalLoop=1;fontSize=11;endArrow=block;endFill=0;endSize=8;strokeWidth=1;shadow=0;labelBackgroundColor=none;exitX=1;exitY=0.5;exitDx=0;exitDy=0;" edge="1" parent="WIyWlLk6GJQsqaUBKTNV-1" source="kOnfNO-TKj69ax_tA5gU-157" target="kOnfNO-TKj69ax_tA5gU-158">
          <mxGeometry relative="1" as="geometry">
            <mxPoint x="460" y="1115" as="sourcePoint" />
            <mxPoint x="495" y="1115" as="targetPoint" />
          </mxGeometry>
        </mxCell>
        <mxCell id="kOnfNO-TKj69ax_tA5gU-374" value="" style="edgeStyle=orthogonalEdgeStyle;rounded=0;html=1;jettySize=auto;orthogonalLoop=1;fontSize=11;endArrow=block;endFill=0;endSize=8;strokeWidth=1;shadow=0;labelBackgroundColor=none;exitX=1;exitY=0.5;exitDx=0;exitDy=0;" edge="1" parent="WIyWlLk6GJQsqaUBKTNV-1" source="kOnfNO-TKj69ax_tA5gU-158" target="kOnfNO-TKj69ax_tA5gU-160">
          <mxGeometry relative="1" as="geometry">
            <mxPoint x="615" y="1115" as="sourcePoint" />
            <mxPoint x="660" y="1115" as="targetPoint" />
          </mxGeometry>
        </mxCell>
        <mxCell id="kOnfNO-TKj69ax_tA5gU-375" value="" style="edgeStyle=orthogonalEdgeStyle;rounded=0;html=1;jettySize=auto;orthogonalLoop=1;fontSize=11;endArrow=block;endFill=0;endSize=8;strokeWidth=1;shadow=0;labelBackgroundColor=none;exitX=1;exitY=0.5;exitDx=0;exitDy=0;entryX=0.75;entryY=1;entryDx=0;entryDy=0;" edge="1" parent="WIyWlLk6GJQsqaUBKTNV-1" source="kOnfNO-TKj69ax_tA5gU-160" target="kOnfNO-TKj69ax_tA5gU-195">
          <mxGeometry relative="1" as="geometry">
            <mxPoint x="780" y="1115" as="sourcePoint" />
            <mxPoint x="820" y="1115" as="targetPoint" />
          </mxGeometry>
        </mxCell>
        <mxCell id="kOnfNO-TKj69ax_tA5gU-376" value="yes" style="edgeStyle=orthogonalEdgeStyle;rounded=0;html=1;jettySize=auto;orthogonalLoop=1;fontSize=11;endArrow=block;endFill=0;endSize=8;strokeWidth=1;shadow=0;labelBackgroundColor=none;exitX=0.5;exitY=0;exitDx=0;exitDy=0;" edge="1" parent="WIyWlLk6GJQsqaUBKTNV-1" source="kOnfNO-TKj69ax_tA5gU-155" target="kOnfNO-TKj69ax_tA5gU-83">
          <mxGeometry x="-0.9639" relative="1" as="geometry">
            <mxPoint as="offset" />
            <mxPoint x="555" y="995" as="sourcePoint" />
            <mxPoint x="2170" y="780" as="targetPoint" />
            <Array as="points">
              <mxPoint x="390" y="1070" />
              <mxPoint x="2170" y="1070" />
            </Array>
          </mxGeometry>
        </mxCell>
        <mxCell id="kOnfNO-TKj69ax_tA5gU-377" value="" style="edgeStyle=orthogonalEdgeStyle;rounded=0;html=1;jettySize=auto;orthogonalLoop=1;fontSize=11;endArrow=block;endFill=0;endSize=8;strokeWidth=1;shadow=0;labelBackgroundColor=none;exitX=1;exitY=0.5;exitDx=0;exitDy=0;" edge="1" parent="WIyWlLk6GJQsqaUBKTNV-1" source="kOnfNO-TKj69ax_tA5gU-64" target="kOnfNO-TKj69ax_tA5gU-161">
          <mxGeometry relative="1" as="geometry">
            <mxPoint x="308.5" y="1130" as="sourcePoint" />
            <mxPoint x="338.5" y="1130" as="targetPoint" />
          </mxGeometry>
        </mxCell>
        <mxCell id="kOnfNO-TKj69ax_tA5gU-378" value="indeterminate&lt;div&gt;representation&lt;/div&gt;" style="rhombus;whiteSpace=wrap;html=1;shadow=0;fontFamily=Helvetica;fontSize=12;align=center;strokeWidth=1;spacing=6;spacingTop=-4;" vertex="1" parent="WIyWlLk6GJQsqaUBKTNV-1">
          <mxGeometry x="486.5" y="1150" width="130" height="60" as="geometry" />
        </mxCell>
        <mxCell id="kOnfNO-TKj69ax_tA5gU-379" value="" style="edgeStyle=orthogonalEdgeStyle;rounded=0;html=1;jettySize=auto;orthogonalLoop=1;fontSize=11;endArrow=block;endFill=0;endSize=8;strokeWidth=1;shadow=0;labelBackgroundColor=none;exitX=1;exitY=0.5;exitDx=0;exitDy=0;" edge="1" parent="WIyWlLk6GJQsqaUBKTNV-1" source="kOnfNO-TKj69ax_tA5gU-161" target="kOnfNO-TKj69ax_tA5gU-378">
          <mxGeometry x="-0.5556" y="5" relative="1" as="geometry">
            <mxPoint as="offset" />
            <mxPoint x="460" y="1115" as="sourcePoint" />
            <mxPoint x="495" y="1115" as="targetPoint" />
          </mxGeometry>
        </mxCell>
        <mxCell id="kOnfNO-TKj69ax_tA5gU-380" value="no" style="edgeStyle=orthogonalEdgeStyle;rounded=0;html=1;jettySize=auto;orthogonalLoop=1;fontSize=11;endArrow=block;endFill=0;endSize=8;strokeWidth=1;shadow=0;labelBackgroundColor=none;exitX=1;exitY=0.5;exitDx=0;exitDy=0;" edge="1" parent="WIyWlLk6GJQsqaUBKTNV-1" source="kOnfNO-TKj69ax_tA5gU-378" target="kOnfNO-TKj69ax_tA5gU-163">
          <mxGeometry x="-0.5556" y="5" relative="1" as="geometry">
            <mxPoint as="offset" />
            <mxPoint x="459" y="1190" as="sourcePoint" />
            <mxPoint x="497" y="1190" as="targetPoint" />
          </mxGeometry>
        </mxCell>
        <mxCell id="kOnfNO-TKj69ax_tA5gU-382" value="no" style="edgeStyle=orthogonalEdgeStyle;rounded=0;html=1;jettySize=auto;orthogonalLoop=1;fontSize=11;endArrow=block;endFill=0;endSize=8;strokeWidth=1;shadow=0;labelBackgroundColor=none;exitX=1;exitY=0.5;exitDx=0;exitDy=0;" edge="1" parent="WIyWlLk6GJQsqaUBKTNV-1" source="kOnfNO-TKj69ax_tA5gU-163" target="kOnfNO-TKj69ax_tA5gU-164">
          <mxGeometry x="-0.5556" y="5" relative="1" as="geometry">
            <mxPoint as="offset" />
            <mxPoint x="627" y="1190" as="sourcePoint" />
            <mxPoint x="664" y="1190" as="targetPoint" />
          </mxGeometry>
        </mxCell>
        <mxCell id="kOnfNO-TKj69ax_tA5gU-383" value="no" style="edgeStyle=orthogonalEdgeStyle;rounded=0;html=1;jettySize=auto;orthogonalLoop=1;fontSize=11;endArrow=block;endFill=0;endSize=8;strokeWidth=1;shadow=0;labelBackgroundColor=none;exitX=1;exitY=0.5;exitDx=0;exitDy=0;" edge="1" parent="WIyWlLk6GJQsqaUBKTNV-1" source="kOnfNO-TKj69ax_tA5gU-164" target="kOnfNO-TKj69ax_tA5gU-165">
          <mxGeometry x="-0.5556" y="5" relative="1" as="geometry">
            <mxPoint as="offset" />
            <mxPoint x="804" y="1190" as="sourcePoint" />
            <mxPoint x="844" y="1190" as="targetPoint" />
          </mxGeometry>
        </mxCell>
        <mxCell id="kOnfNO-TKj69ax_tA5gU-384" value="" style="edgeStyle=orthogonalEdgeStyle;rounded=0;html=1;jettySize=auto;orthogonalLoop=1;fontSize=11;endArrow=block;endFill=0;endSize=8;strokeWidth=1;shadow=0;labelBackgroundColor=none;exitX=1;exitY=0.5;exitDx=0;exitDy=0;entryX=0.859;entryY=0.987;entryDx=0;entryDy=0;entryPerimeter=0;" edge="1" parent="WIyWlLk6GJQsqaUBKTNV-1" source="kOnfNO-TKj69ax_tA5gU-165" target="kOnfNO-TKj69ax_tA5gU-195">
          <mxGeometry relative="1" as="geometry">
            <mxPoint x="940" y="1115" as="sourcePoint" />
            <mxPoint x="2440" y="840" as="targetPoint" />
          </mxGeometry>
        </mxCell>
        <mxCell id="kOnfNO-TKj69ax_tA5gU-385" value="yes" style="edgeStyle=orthogonalEdgeStyle;rounded=0;html=1;jettySize=auto;orthogonalLoop=1;fontSize=11;endArrow=block;endFill=0;endSize=8;strokeWidth=1;shadow=0;labelBackgroundColor=none;exitX=0.5;exitY=0;exitDx=0;exitDy=0;" edge="1" parent="WIyWlLk6GJQsqaUBKTNV-1" source="kOnfNO-TKj69ax_tA5gU-378" target="kOnfNO-TKj69ax_tA5gU-83">
          <mxGeometry x="-0.9639" relative="1" as="geometry">
            <mxPoint as="offset" />
            <mxPoint x="400" y="1100" as="sourcePoint" />
            <mxPoint x="2180" y="780" as="targetPoint" />
            <Array as="points">
              <mxPoint x="550" y="1150" />
              <mxPoint x="550" y="1140" />
              <mxPoint x="2180" y="1140" />
            </Array>
          </mxGeometry>
        </mxCell>
        <mxCell id="kOnfNO-TKj69ax_tA5gU-386" value="" style="endArrow=none;html=1;rounded=0;exitX=0.5;exitY=0;exitDx=0;exitDy=0;" edge="1" parent="WIyWlLk6GJQsqaUBKTNV-1" source="kOnfNO-TKj69ax_tA5gU-163">
          <mxGeometry width="50" height="50" relative="1" as="geometry">
            <mxPoint x="706.62" y="1010.0000000000001" as="sourcePoint" />
            <mxPoint x="724" y="1140" as="targetPoint" />
          </mxGeometry>
        </mxCell>
        <mxCell id="kOnfNO-TKj69ax_tA5gU-387" value="yes" style="edgeLabel;html=1;align=center;verticalAlign=middle;resizable=0;points=[];" vertex="1" connectable="0" parent="kOnfNO-TKj69ax_tA5gU-386">
          <mxGeometry x="0.3407" y="1" relative="1" as="geometry">
            <mxPoint x="1" y="3" as="offset" />
          </mxGeometry>
        </mxCell>
        <mxCell id="kOnfNO-TKj69ax_tA5gU-388" value="" style="endArrow=none;html=1;rounded=0;" edge="1" parent="WIyWlLk6GJQsqaUBKTNV-1" source="kOnfNO-TKj69ax_tA5gU-164">
          <mxGeometry width="50" height="50" relative="1" as="geometry">
            <mxPoint x="734" y="1173" as="sourcePoint" />
            <mxPoint x="900" y="1140" as="targetPoint" />
          </mxGeometry>
        </mxCell>
        <mxCell id="kOnfNO-TKj69ax_tA5gU-389" value="yes" style="edgeLabel;html=1;align=center;verticalAlign=middle;resizable=0;points=[];" vertex="1" connectable="0" parent="kOnfNO-TKj69ax_tA5gU-388">
          <mxGeometry x="0.3407" y="1" relative="1" as="geometry">
            <mxPoint x="1" y="3" as="offset" />
          </mxGeometry>
        </mxCell>
      </root>
    </mxGraphModel>
  </diagram>
</mxfile>
